<?xml version="1.0" encoding="UTF-8"?>
<svg version="1.1" xmlns="http://www.w3.org/2000/svg" width="124" height="113">
<path d="M0 0 C3.4375 0.875 3.4375 0.875 5.4375 3.875 C5.72460938 7.02954102 5.72460938 7.02954102 5.78125 10.87890625 C5.7958728 11.55799545 5.81049561 12.23708466 5.82556152 12.93675232 C5.8877847 15.83907552 5.92749161 18.74160878 5.96923828 21.64428711 C6.00292458 23.76438877 6.0480385 25.88403539 6.09375 28.00390625 C6.12178711 29.90765015 6.12178711 29.90765015 6.15039062 31.84985352 C6.12392074 34.98617669 6.12392074 34.98617669 8.4375 36.875 C11.57893369 37.18192402 11.57893369 37.18192402 15.2734375 37.1484375 C16.66146634 37.16873014 18.04948712 37.18958099 19.4375 37.2109375 C21.62539471 37.23352349 23.8129707 37.25000126 26.00097656 37.25585938 C28.11321634 37.26539545 30.22402021 37.29918585 32.3359375 37.3359375 C33.60099121 37.34415527 34.86604492 37.35237305 36.16943359 37.36083984 C39.4375 37.875 39.4375 37.875 41.88525391 39.71337891 C43.4375 41.875 43.4375 41.875 43.375 45 C42.4375 47.875 42.4375 47.875 39.4375 49.875 C36.90163152 50.11493655 34.46533969 50.24753219 31.92578125 50.2890625 C30.83344429 50.31811172 30.83344429 50.31811172 29.71903992 50.3477478 C27.39614525 50.40746376 25.07320081 50.45389617 22.75 50.5 C21.17380668 50.53818721 19.59763405 50.57723938 18.02148438 50.6171875 C14.16032465 50.71315848 10.29906724 50.79721849 6.4375 50.875 C6.4281543 51.8537207 6.41880859 52.83244141 6.40917969 53.84082031 C6.36924542 57.47913791 6.30347866 61.11661291 6.22998047 64.75439453 C6.20179046 66.32752644 6.18056602 67.90079947 6.16650391 69.47412109 C6.14504558 71.73868956 6.09838652 74.00156504 6.046875 76.265625 C6.04503204 77.31740936 6.04503204 77.31740936 6.04315186 78.39044189 C5.94226857 81.76905314 5.63065599 83.61469492 3.59472656 86.35839844 C1.4375 87.875 1.4375 87.875 -1.6875 87.75 C-4.5625 86.875 -4.5625 86.875 -6.5625 84.875 C-6.84960938 81.7421875 -6.84960938 81.7421875 -6.90625 77.75 C-6.9208728 77.0472998 -6.93549561 76.34459961 -6.95056152 75.62060547 C-7.01290879 72.60988426 -7.05245364 69.59895598 -7.09423828 66.58789062 C-7.12793082 64.39170672 -7.17305325 62.19596153 -7.21875 60 C-7.23744141 58.68257812 -7.25613281 57.36515625 -7.27539062 56.0078125 C-7.23476927 52.77631548 -7.23476927 52.77631548 -9.5625 50.875 C-12.70345379 50.55141875 -12.70345379 50.55141875 -16.3984375 50.56640625 C-17.78646246 50.54124221 -19.17448319 50.51584424 -20.5625 50.49023438 C-22.75031402 50.46151195 -24.93805452 50.43749524 -27.12597656 50.41870117 C-29.23802162 50.39700861 -31.34919509 50.35756406 -33.4609375 50.31640625 C-34.72599121 50.30295166 -35.99104492 50.28949707 -37.29443359 50.27563477 C-40.73837568 49.85343927 -42.18579852 49.36639583 -44.5625 46.875 C-45.00843228 43.81717866 -45.20030102 41.8589821 -43.48657227 39.21508789 C-40.52626541 37.15327792 -37.90899285 37.47019029 -34.33984375 37.43359375 C-33.6385585 37.42038589 -32.93727325 37.40717804 -32.21473694 37.39356995 C-29.97645059 37.35269319 -27.73857511 37.33100459 -25.5 37.3125 C-23.25797877 37.2887279 -21.01634545 37.26064816 -18.77455139 37.22071838 C-16.74300786 37.18517977 -14.71120791 37.16534304 -12.67944336 37.14624023 C-9.46159384 37.20285578 -9.46159384 37.20285578 -7.5625 34.875 C-7.23875559 31.61980117 -7.23875559 31.61980117 -7.25390625 27.78515625 C-7.22874802 26.34700112 -7.20334997 24.90885018 -7.17773438 23.47070312 C-7.14897408 21.20158959 -7.12495907 18.93254858 -7.10620117 16.66333008 C-7.08456146 14.47439015 -7.04512673 12.2863021 -7.00390625 10.09765625 C-6.99045166 8.78547119 -6.97699707 7.47328613 -6.96313477 6.12133789 C-6.5625 2.875 -6.5625 2.875 -5.25756836 0.91577148 C-3.5625 -0.125 -3.5625 -0.125 0 0 Z " fill="#325663" transform="translate(62.5625,15.125)"/>
<path d="M0 0 C0.33 0 0.66 0 1 0 C1 9.9 1 19.8 1 30 C3.64 30.33 6.28 30.66 9 31 C9.33 30.34 9.66 29.68 10 29 C10 30.32 10 31.64 10 33 C4.68815546 34.32796114 4.68815546 34.32796114 1.82128906 32.96166992 C-0.88095893 30.05113874 -0.45451466 27.8390231 -0.390625 23.92578125 C-0.38496521 23.2419487 -0.37930542 22.55811615 -0.37347412 21.8535614 C-0.35110816 19.67249101 -0.30091765 17.49307247 -0.25 15.3125 C-0.229935 13.83270605 -0.21168422 12.3528863 -0.1953125 10.87304688 C-0.15124474 7.2481624 -0.08221822 3.62424244 0 0 Z " fill="#647D82" transform="translate(56,69)"/>
<path d="M0 0 C-1.32 0.33 -2.64 0.66 -4 1 C-4.33 2.98 -4.66 4.96 -5 7 C-5.33 7 -5.66 7 -6 7 C-6.33 15.91 -6.66 24.82 -7 34 C-7.33 34 -7.66 34 -8 34 C-8.07418046 29.64009127 -8.12861544 25.28051721 -8.16479492 20.92016602 C-8.17987768 19.43702801 -8.20034689 17.95393456 -8.22631836 16.47094727 C-8.26272616 14.33859255 -8.27973073 12.20682765 -8.29296875 10.07421875 C-8.3086792 8.79119873 -8.32438965 7.50817871 -8.34057617 6.1862793 C-8 3 -8 3 -6.6496582 1.06958008 C-4.38241219 -0.40042211 -2.64216187 -0.21422934 0 0 Z " fill="#5C787E" transform="translate(64,15)"/>
<path d="M0 0 C0.33 0 0.66 0 1 0 C1.33 9.57 1.66 19.14 2 29 C1.01 29.33 0.02 29.66 -1 30 C-0.67 20.1 -0.34 10.2 0 0 Z " fill="#2B4954" transform="translate(66,23)"/>
<path d="M0 0 C-1.32 0.33 -2.64 0.66 -4 1 C-4.33 2.98 -4.66 4.96 -5 7 C-5.99 7.33 -6.98 7.66 -8 8 C-8.36075949 3.55063291 -8.36075949 3.55063291 -6.8125 1.1875 C-4.44017475 -0.36678206 -2.77958655 -0.22537188 0 0 Z " fill="#678088" transform="translate(64,15)"/>
<path d="M0 0 C2.52588702 2.36292656 3.88820837 3.66462511 5 7 C3.68 7 2.36 7 1 7 C0 6 0 6 -0.0625 2.9375 C-0.041875 1.968125 -0.02125 0.99875 0 0 Z " fill="#677E88" transform="translate(18,56)"/>
<path d="M0 0 C0 0.33 0 0.66 0 1 C-0.7425 1.061875 -1.485 1.12375 -2.25 1.1875 C-5.8185739 2.24185138 -6.92245228 3.99909773 -9 7 C-9.1875 4.625 -9.1875 4.625 -9 2 C-5.5647952 -0.29013653 -4.014669 -0.17842973 0 0 Z " fill="#2C4851" transform="translate(28,54)"/>
<path d="M0 0 C1.5625 1.125 1.5625 1.125 3 3 C2.6875 6.1875 2.6875 6.1875 2 9 C1.67 9 1.34 9 1 9 C-1.125 2.25 -1.125 2.25 0 0 Z " fill="#7E9199" transform="translate(103,54)"/>
</svg>
