<?xml version="1.0" encoding="UTF-8"?>
<svg version="1.1" xmlns="http://www.w3.org/2000/svg" width="92" height="96">
<path d="M0 0 C1.40572266 -0.02900391 1.40572266 -0.02900391 2.83984375 -0.05859375 C7.20192164 -0.02765703 9.83478856 0.22320562 13.6171875 2.5078125 C16.35338529 7.03786611 16.23223463 10.92769497 16.125 16.125 C16.15400391 17.53072266 16.15400391 17.53072266 16.18359375 18.96484375 C16.15265824 23.32675118 15.89776085 25.96344349 13.62109375 29.75 C9.06879367 32.48479855 5.14776201 32.28191412 -0.0625 32.125 C-1.48079102 32.12886719 -1.48079102 32.12886719 -2.92773438 32.1328125 C-10.89230861 32.02023901 -10.89230861 32.02023901 -14.5 28.625 C-15.92630596 24.34608211 -15.8048437 20.23362537 -15.875 15.75 C-15.91238281 14.85152344 -15.94976562 13.95304687 -15.98828125 13.02734375 C-16.04540981 8.73000636 -15.88889966 6.26936931 -13.6328125 2.53125 C-9.09433094 -0.23031983 -5.21615104 -0.10762347 0 0 Z M-4.5 11.625 C-4.5 14.595 -4.5 17.565 -4.5 20.625 C-1.53 20.625 1.44 20.625 4.5 20.625 C4.5 17.655 4.5 14.685 4.5 11.625 C1.53 11.625 -1.44 11.625 -4.5 11.625 Z " fill="#055364" transform="translate(65.5,11.375)"/>
<path d="M0 0 C0.80759766 -0.020625 1.61519531 -0.04125 2.44726562 -0.0625 C7.18772182 -0.0935595 10.36360472 0.13261489 14.1875 3.25 C17.01737779 7.49481668 16.55539905 11.1330297 16.5625 16.125 C16.58699219 17.02347656 16.61148438 17.92195313 16.63671875 18.84765625 C16.65419294 22.7909979 16.42240842 25.68988803 14.88671875 29.3515625 C10.46216534 32.46347706 5.88868004 31.89217429 0.625 31.75 C-0.42880859 31.75257812 -1.48261719 31.75515625 -2.56835938 31.7578125 C-10.29929589 31.65914069 -10.29929589 31.65914069 -12.57397461 29.84570312 C-15.81645534 25.66812496 -15.07419602 20.95539828 -15.125 15.875 C-15.15400391 14.9159375 -15.18300781 13.956875 -15.21289062 12.96875 C-15.27699356 5.88784065 -15.27699356 5.88784065 -12.91796875 2.6484375 C-8.68769913 -0.16127776 -4.95145931 0.03116575 0 0 Z M-3.8125 11.25 C-3.8125 14.55 -3.8125 17.85 -3.8125 21.25 C-0.8425 21.25 2.1275 21.25 5.1875 21.25 C5.1875 17.95 5.1875 14.65 5.1875 11.25 C2.2175 11.25 -0.7525 11.25 -3.8125 11.25 Z " fill="#025365" transform="translate(24.8125,51.75)"/>
<path d="M0 0 C0.84111328 0.00193359 1.68222656 0.00386719 2.54882812 0.00585938 C6.12595143 0.08245123 8.6472421 0.20666438 11.83203125 1.91015625 C15.3385433 5.82375677 14.49631852 11.0704982 14.5 16 C14.51224609 16.85916016 14.52449219 17.71832031 14.53710938 18.60351562 C14.54000977 19.8497168 14.54000977 19.8497168 14.54296875 21.12109375 C14.54707764 21.87704834 14.55118652 22.63300293 14.55541992 23.41186523 C14.27406559 25.90277008 13.65425505 27.44948014 12.3125 29.5625 C7.96862755 32.45841497 4.04956174 31.96891314 -1.0625 32 C-2.00867187 32.03287109 -2.95484375 32.06574219 -3.9296875 32.09960938 C-8.35674984 32.13380719 -10.97114011 32.00057472 -14.8046875 29.65625 C-17.46815991 25.27975592 -17.49619824 21.66204314 -17.4375 16.625 C-17.47359375 15.74392578 -17.5096875 14.86285156 -17.546875 13.95507812 C-17.546875 10.37300378 -17.40552151 7.66181093 -15.41674805 4.61694336 C-10.78591254 0.04836664 -6.25891438 -0.27720134 0 0 Z M-5.6875 11.5625 C-5.6875 14.5325 -5.6875 17.5025 -5.6875 20.5625 C-2.7175 20.5625 0.2525 20.5625 3.3125 20.5625 C3.3125 17.5925 3.3125 14.6225 3.3125 11.5625 C0.3425 11.5625 -2.6275 11.5625 -5.6875 11.5625 Z " fill="#055162" transform="translate(26.6875,11.4375)"/>
<path d="M0 0 C1.0725 0.00515625 2.145 0.0103125 3.25 0.015625 C4.85875 0.00789063 4.85875 0.00789063 6.5 0 C9.25 0.265625 9.25 0.265625 11.25 2.265625 C11.25 3.255625 11.25 4.245625 11.25 5.265625 C14.22 5.265625 17.19 5.265625 20.25 5.265625 C20.58 3.945625 20.91 2.625625 21.25 1.265625 C22.57 1.265625 23.89 1.265625 25.25 1.265625 C26.7720959 2.7877209 26.37959521 4.14772582 26.3828125 6.265625 C26.38474609 7.4721875 26.38474609 7.4721875 26.38671875 8.703125 C26.38285156 9.54875 26.37898438 10.394375 26.375 11.265625 C26.38080078 12.5340625 26.38080078 12.5340625 26.38671875 13.828125 C26.38542969 14.6325 26.38414063 15.436875 26.3828125 16.265625 C26.38168457 17.008125 26.38055664 17.750625 26.37939453 18.515625 C26.25 20.265625 26.25 20.265625 25.25 21.265625 C22.89686445 21.33834241 20.54166332 21.34933368 18.1875 21.328125 C16.89714844 21.31910156 15.60679688 21.31007813 14.27734375 21.30078125 C13.27832031 21.28917969 12.27929688 21.27757813 11.25 21.265625 C10.59 19.945625 9.93 18.625625 9.25 17.265625 C8.59 17.265625 7.93 17.265625 7.25 17.265625 C7.21261719 18.18085937 7.17523438 19.09609375 7.13671875 20.0390625 C7.07097656 21.22757813 7.00523438 22.41609375 6.9375 23.640625 C6.85048828 25.41566406 6.85048828 25.41566406 6.76171875 27.2265625 C6.59285156 28.22945312 6.42398438 29.23234375 6.25 30.265625 C3.25 32.265625 3.25 32.265625 -0.375 31.953125 C-3.75 31.265625 -3.75 31.265625 -4.75 30.265625 C-5.0041555 25.62547175 -4.93522798 20.97441194 -4.9375 16.328125 C-4.94974609 15.01392578 -4.96199219 13.69972656 -4.97460938 12.34570312 C-4.97750977 10.4672168 -4.97750977 10.4672168 -4.98046875 8.55078125 C-4.98457764 7.39457275 -4.98868652 6.23836426 -4.99291992 5.04711914 C-4.65837899 1.21654147 -3.82865692 0.36981345 0 0 Z " fill="#025365" transform="translate(54.75,51.734375)"/>
<path d="M0 0 C1.32 0.66 2.64 1.32 4 2 C4.02683987 4.97922593 4.04676037 7.95821295 4.0625 10.9375 C4.07087891 11.78763672 4.07925781 12.63777344 4.08789062 13.51367188 C4.09272461 14.72700195 4.09272461 14.72700195 4.09765625 15.96484375 C4.10551147 17.08814087 4.10551147 17.08814087 4.11352539 18.23413086 C4 20 4 20 3 21 C0.64686445 21.07271741 -1.70833668 21.08370868 -4.0625 21.0625 C-5.35285156 21.05347656 -6.64320312 21.04445313 -7.97265625 21.03515625 C-8.97167969 21.02355469 -9.97070312 21.01195313 -11 21 C-11.66 19.68 -12.32 18.36 -13 17 C-13.66 17 -14.32 17 -15 17 C-15.03738281 17.91523437 -15.07476562 18.83046875 -15.11328125 19.7734375 C-15.17902344 20.96195313 -15.24476562 22.15046875 -15.3125 23.375 C-15.39951172 25.15003906 -15.39951172 25.15003906 -15.48828125 26.9609375 C-15.65714844 27.96382812 -15.82601562 28.96671875 -16 30 C-19 32 -19 32 -22.625 31.6875 C-26 31 -26 31 -27 30 C-27.08767112 27.92737924 -27.10695873 25.85179706 -27.09765625 23.77734375 C-27.09443359 22.51728516 -27.09121094 21.25722656 -27.08789062 19.95898438 C-27.07953403 18.61848891 -27.07106907 17.27799412 -27.0625 15.9375 C-27.0574866 14.59310058 -27.05292342 13.2486994 -27.04882812 11.90429688 C-27.03699488 8.60282059 -27.02050971 5.30143197 -27 2 C-26.67 2 -26.34 2 -26 2 C-25.67 10.91 -25.34 19.82 -25 29 C-22.69 29 -20.38 29 -18 29 C-18 24.38 -18 19.76 -18 15 C-12.375 13.875 -12.375 13.875 -9 15 C-9 15.66 -9 16.32 -9 17 C-6.70370006 18.14814997 -4.92301914 18.30769809 -2.375 18.5625 C-0.93125 18.706875 0.5125 18.85125 2 19 C1.505 14.05 1.505 14.05 1 9 C-0.60875 8.896875 -2.2175 8.79375 -3.875 8.6875 C-6.6171875 8.51171875 -6.6171875 8.51171875 -9 8 C-9.66 7.01 -10.32 6.02 -11 5 C-8.03 5 -5.06 5 -2 5 C-1.67 3.68 -1.34 2.36 -1 1 C-0.67 0.67 -0.34 0.34 0 0 Z " fill="#0C4B59" transform="translate(77,52)"/>
<path d="M0 0 C0.99 0.66 1.98 1.32 3 2 C1.35 2.66 -0.3 3.32 -2 4 C-2.05802698 7.43742918 -2.09360486 10.87473253 -2.125 14.3125 C-2.14175781 15.28896484 -2.15851562 16.26542969 -2.17578125 17.27148438 C-2.18222656 18.20927734 -2.18867187 19.14707031 -2.1953125 20.11328125 C-2.20578613 20.97735596 -2.21625977 21.84143066 -2.22705078 22.73168945 C-2.15090168 25.28180721 -2.15090168 25.28180721 0 28 C3.59677228 29.07654257 7.13706418 29.16322769 10.875 29.1875 C11.86242187 29.20167969 12.84984375 29.21585938 13.8671875 29.23046875 C17.7066792 29.05480829 17.7066792 29.05480829 24 27 C24 20.07 24 13.14 24 6 C24.66 5.67 25.32 5.34 26 5 C26.14575327 8.39537852 26.23421542 11.78994902 26.3125 15.1875 C26.35439453 16.14720703 26.39628906 17.10691406 26.43945312 18.09570312 C26.51660628 22.55515571 26.44441198 25.24842092 24.140625 29.14453125 C19.57185413 31.8437429 15.64664901 31.6568806 10.4375 31.5 C9.01920898 31.50386719 9.01920898 31.50386719 7.57226562 31.5078125 C-0.39230861 31.39523901 -0.39230861 31.39523901 -4 28 C-5.42630596 23.72108211 -5.3048437 19.60862537 -5.375 15.125 C-5.41238281 14.22652344 -5.44976562 13.32804687 -5.48828125 12.40234375 C-5.57497 5.88142359 -5.57497 5.88142359 -3.86035156 3.25292969 C-2.4765625 1.8671875 -2.4765625 1.8671875 0 0 Z " fill="#124B57" transform="translate(55,12)"/>
<path d="M0 0 C3.27326044 3.27326044 2.36873129 7.3648474 2.375 11.8125 C2.39949219 12.71548828 2.42398438 13.61847656 2.44921875 14.54882812 C2.46667098 18.50757486 2.23915391 21.42904696 0.69921875 25.10546875 C-3.72652537 28.21181592 -8.30060099 27.64212619 -13.5625 27.5 C-14.61630859 27.50257812 -15.67011719 27.50515625 -16.75585938 27.5078125 C-24.46827961 27.40937702 -24.46827961 27.40937702 -26.82397461 25.59570312 C-28 24 -28 24 -28 22 C-27.34 22 -26.68 22 -26 22 C-25.32892212 22.73126099 -25.32892212 22.73126099 -24.64428711 23.47729492 C-22.54779953 25.41876383 -21.51037907 25.37441392 -18.69140625 25.36328125 C-17.86189453 25.36263672 -17.03238281 25.36199219 -16.17773438 25.36132812 C-15.31470703 25.34521484 -14.45167969 25.32910156 -13.5625 25.3125 C-12.70333984 25.31572266 -11.84417969 25.31894531 -10.95898438 25.32226562 C-6.40280453 25.28338434 -4.22919537 25.11459768 0 23 C0 15.41 0 7.82 0 0 Z " fill="#124A55" transform="translate(39,56)"/>
<path d="M0 0 C0.33 0 0.66 0 1 0 C1.24900646 1.93505023 1.47356242 3.87325934 1.6875 5.8125 C1.81511719 6.89144531 1.94273438 7.97039062 2.07421875 9.08203125 C2 12 2 12 0.51953125 13.88671875 C0.01808594 14.25410156 -0.48335937 14.62148437 -1 15 C-1 14.34 -1 13.68 -1 13 C-2.299375 12.87625 -3.59875 12.7525 -4.9375 12.625 C-7.15234375 12.4140625 -7.15234375 12.4140625 -9 12 C-9.33 11.34 -9.66 10.68 -10 10 C-6.7 10 -3.4 10 0 10 C0 6.7 0 3.4 0 0 Z " fill="#0A4B58" transform="translate(30,63)"/>
<path d="M0 0 C-0.33 0.99 -0.66 1.98 -1 3 C-1.66 3 -2.32 3 -3 3 C-3.9001836 7.79593617 -4.29439762 12.51399614 -4.5625 17.375 C-4.60568359 18.11105469 -4.64886719 18.84710938 -4.69335938 19.60546875 C-4.79843799 21.40348068 -4.89962093 23.20171958 -5 25 C-5.33 25 -5.66 25 -6 25 C-6.11632513 21.58362047 -6.18728897 18.16775103 -6.25 14.75 C-6.28351562 13.78191406 -6.31703125 12.81382813 -6.3515625 11.81640625 C-6.45059174 4.63678667 -6.45059174 4.63678667 -4.109375 1.328125 C-2 0 -2 0 0 0 Z " fill="#114959" transform="translate(16,53)"/>
<path d="M0 0 C1.32 0.66 2.64 1.32 4 2 C4 7.94 4 13.88 4 20 C3.67 20 3.34 20 3 20 C2.93941406 19.02417969 2.87882812 18.04835938 2.81640625 17.04296875 C2.73261719 15.77066406 2.64882812 14.49835938 2.5625 13.1875 C2.48128906 11.92292969 2.40007812 10.65835938 2.31640625 9.35546875 C2.12815453 6.00818107 2.12815453 6.00818107 1 3 C0.01 3.66 -0.98 4.32 -2 5 C-1.125 1.125 -1.125 1.125 0 0 Z " fill="#144750" transform="translate(77,52)"/>
<path d="M0 0 C2.75059381 -0.08107646 5.49879021 -0.14052813 8.25 -0.1875 C9.02730469 -0.21263672 9.80460937 -0.23777344 10.60546875 -0.26367188 C14.14620771 -0.30906596 16.3904659 -0.33187823 19.546875 1.38671875 C21 3 21 3 21 5 C20.52046875 4.69320313 20.0409375 4.38640625 19.546875 4.0703125 C15.87068079 2.5254088 12.19494098 2.27407363 8.25 1.875 C7.06083984 1.74544922 7.06083984 1.74544922 5.84765625 1.61328125 C3.89916859 1.40199946 1.94967024 1.20007533 0 1 C0 0.67 0 0.34 0 0 Z " fill="#1C5362" transform="translate(19,12)"/>
<path d="M0 0 C0.66 0.66 1.32 1.32 2 2 C-0.97 2 -3.94 2 -7 2 C-7 4.97 -7 7.94 -7 11 C-7.33 11 -7.66 11 -8 11 C-8.66 8.03 -9.32 5.06 -10 2 C-6.32653229 -0.44897847 -4.33643601 -0.31537716 0 0 Z " fill="#10495A" transform="translate(28,61)"/>
<path d="M0 0 C1.32 0.66 2.64 1.32 4 2 C2.02 2.66 0.04 3.32 -2 4 C-2.33 5.65 -2.66 7.3 -3 9 C-3.66 9 -4.32 9 -5 9 C-5.33 9.99 -5.66 10.98 -6 12 C-6.9375 9.375 -6.9375 9.375 -7 6 C-4.9456142 3.61217986 -2.56957396 1.80703206 0 0 Z " fill="#094354" transform="translate(17,12)"/>
<path d="M0 0 C2.89640118 -0.08120751 5.79050912 -0.14059421 8.6875 -0.1875 C9.50412109 -0.21263672 10.32074219 -0.23777344 11.16210938 -0.26367188 C15.97846486 -0.32217012 19.03975154 -0.07302376 23 3 C22.01 3.33 21.02 3.66 20 4 C19.01 3.34 18.02 2.68 17 2 C15.07255631 1.6373883 15.07255631 1.6373883 12.98828125 1.5859375 C12.23095703 1.54726563 11.47363281 1.50859375 10.69335938 1.46875 C9.90767578 1.4378125 9.12199219 1.406875 8.3125 1.375 C7.11657227 1.31699219 7.11657227 1.31699219 5.89648438 1.2578125 C3.93136525 1.16367506 1.9657146 1.08075368 0 1 C0 0.67 0 0.34 0 0 Z " fill="#0A3D4C" transform="translate(16,52)"/>
<path d="M0 0 C0.84256348 0.23771118 0.84256348 0.23771118 1.70214844 0.48022461 C4.09674429 1.02188362 6.31438553 1.20641474 8.765625 1.31640625 C9.65507812 1.35830078 10.54453125 1.40019531 11.4609375 1.44335938 C12.38132812 1.48267578 13.30171875 1.52199219 14.25 1.5625 C15.18585937 1.60568359 16.12171875 1.64886719 17.0859375 1.69335938 C19.39048641 1.7991805 21.69513839 1.90126557 24 2 C24 2.33 24 2.66 24 3 C20.37515001 3.08681476 16.75056557 3.14032721 13.125 3.1875 C11.57619141 3.22520508 11.57619141 3.22520508 9.99609375 3.26367188 C9.00996094 3.27333984 8.02382813 3.28300781 7.0078125 3.29296875 C5.64100342 3.31653442 5.64100342 3.31653442 4.24658203 3.34057617 C3.50520996 3.22818604 2.76383789 3.1157959 2 3 C1.34 2.01 0.68 1.02 0 0 Z " fill="#0E4D5C" transform="translate(11,39)"/>
<path d="M0 0 C1.65 0.33 3.3 0.66 5 1 C4.625 2.9375 4.625 2.9375 4 5 C3.01 5.495 3.01 5.495 2 6 C1.01 5.34 0.02 4.68 -1 4 C-0.67 2.68 -0.34 1.36 0 0 Z " fill="#0E484E" transform="translate(66,78)"/>
<path d="M0 0 C1.65 0.33 3.3 0.66 5 1 C4.625 2.9375 4.625 2.9375 4 5 C3.01 5.495 3.01 5.495 2 6 C1.01 5.34 0.02 4.68 -1 4 C-0.67 2.68 -0.34 1.36 0 0 Z " fill="#144A51" transform="translate(76,78)"/>
<path d="M0 0 C1.23556641 0.01740234 1.23556641 0.01740234 2.49609375 0.03515625 C3.32238281 0.04417969 4.14867187 0.05320313 5 0.0625 C5.63808594 0.07410156 6.27617188 0.08570313 6.93359375 0.09765625 C7.26359375 0.75765625 7.59359375 1.41765625 7.93359375 2.09765625 C4.23941174 3.32905025 1.72796765 2.74198389 -2.06640625 2.09765625 C-2.39640625 3.41765625 -2.72640625 4.73765625 -3.06640625 6.09765625 C-3.10912725 4.4315372 -3.10704457 2.7638274 -3.06640625 1.09765625 C-2.06640625 0.09765625 -2.06640625 0.09765625 0 0 Z " fill="#144E61" transform="translate(54.06640625,51.90234375)"/>
</svg>
