<?xml version="1.0" encoding="UTF-8"?>
<svg version="1.1" xmlns="http://www.w3.org/2000/svg" width="151" height="151">
<path d="M0 0 C0.86208069 -0.00671722 1.72416138 -0.01343445 2.61236572 -0.02035522 C5.46632629 -0.03937624 8.32005224 -0.04326136 11.17407227 -0.04541016 C13.15560504 -0.05183479 15.13713685 -0.05856289 17.1186676 -0.06558228 C21.27395833 -0.07756499 25.42916586 -0.08126203 29.58447266 -0.08007812 C34.91233882 -0.07987478 40.2396725 -0.10718874 45.56741238 -0.14162254 C49.66032875 -0.16384473 53.75311597 -0.16791712 57.8460865 -0.16685867 C59.81051534 -0.16922124 61.77494738 -0.17808151 63.73931694 -0.19352341 C66.4854465 -0.2130906 69.23041477 -0.20738228 71.9765625 -0.1953125 C72.78968399 -0.20655151 73.60280548 -0.21779053 74.44056702 -0.22937012 C78.00604244 -0.18949041 80.11132812 -0.03990891 83.00799561 2.12733459 C85.03257676 4.96203215 85.93367407 7.665354 86.94750977 10.99755859 C87.14398605 11.64117844 87.34046234 12.28479828 87.54289246 12.94792175 C87.95325013 14.30508961 88.35713581 15.66422939 88.75488281 17.02514648 C89.3623019 19.09221721 89.9980325 21.14902473 90.63696289 23.20654297 C91.03388617 24.53219481 91.42912428 25.85835262 91.82250977 27.18505859 C92.35775269 28.97713745 92.35775269 28.97713745 92.90380859 30.80541992 C93.62093079 34.65533316 93.40129558 37.48137187 92.55297852 41.29052734 C90.44749724 44.25379728 89.07867892 45.12275062 85.61547852 46.22802734 C80.84529302 46.32537807 78.60746435 44.28801394 75.24047852 41.10302734 C74.68360352 40.50490234 74.12672852 39.90677734 73.55297852 39.29052734 C73.30547852 40.07427734 73.05797852 40.85802734 72.80297852 41.66552734 C71.55297852 44.29052734 71.55297852 44.29052734 69.86547852 45.66552734 C66.40292499 46.60135262 64.00279457 46.21458522 60.55297852 45.29052734 C58.24047852 42.72802734 58.24047852 42.72802734 56.55297852 40.29052734 C55.89297852 40.29052734 55.23297852 40.29052734 54.55297852 40.29052734 C53.99610352 41.09490234 53.43922852 41.89927734 52.86547852 42.72802734 C50.55297852 45.29052734 50.55297852 45.29052734 47.11547852 46.29052734 C43.1548146 46.29052734 41.54725984 45.84447318 38.55297852 43.29052734 C37.74047852 41.10302734 37.74047852 41.10302734 37.55297852 39.29052734 C36.56297852 39.29052734 35.57297852 39.29052734 34.55297852 39.29052734 C34.30547852 40.07427734 34.05797852 40.85802734 33.80297852 41.66552734 C32.55297852 44.29052734 32.55297852 44.29052734 30.86547852 45.66552734 C27.40292499 46.60135262 25.00279457 46.21458522 21.55297852 45.29052734 C19.24047852 42.79052734 19.24047852 42.79052734 17.55297852 40.29052734 C16.56297852 39.79552734 16.56297852 39.79552734 15.55297852 39.29052734 C15.30547852 40.07427734 15.05797852 40.85802734 14.80297852 41.66552734 C13.55297852 44.29052734 13.55297852 44.29052734 11.86547852 45.66552734 C8.40292499 46.60135262 6.00279457 46.21458522 2.55297852 45.29052734 C0.24047852 42.72802734 0.24047852 42.72802734 -1.44702148 40.29052734 C-2.10702148 40.29052734 -2.76702148 40.29052734 -3.44702148 40.29052734 C-4.00389648 41.09490234 -4.56077148 41.89927734 -5.13452148 42.72802734 C-7.44702148 45.29052734 -7.44702148 45.29052734 -10.88452148 46.29052734 C-14.8842656 46.29052734 -16.42982107 45.87669913 -19.44702148 43.29052734 C-21.13159992 40.8735235 -21.56076731 39.22221944 -21.20288086 36.29077148 C-19.7227596 28.9929514 -17.68865621 21.90770132 -15.50952148 14.79052734 C-15.16211914 13.61232422 -14.8147168 12.43412109 -14.45678711 11.22021484 C-14.11454102 10.09873047 -13.77229492 8.97724609 -13.41967773 7.82177734 C-13.11296143 6.80664062 -12.80624512 5.79150391 -12.49023438 4.74560547 C-10.11263668 -0.84978942 -5.22686587 -0.00581183 0 0 Z " fill="#244A59" transform="translate(40.447021484375,23.70947265625)"/>
<path d="M0 0 C2.48935591 0.78930797 4.669779 1.8348895 7 3 C12.07690407 3.38395131 12.07690407 3.38395131 16.625 1.375 C17.40875 0.92125 18.1925 0.4675 19 0 C21.6875 0.75 21.6875 0.75 24 2 C27.17314193 3.58657097 30.54375701 3.41998172 34 3 C36.2072358 1.51199628 36.2072358 1.51199628 38 0 C40.34159511 0.21952454 41.79069507 0.87730401 43.8125 2.0625 C47.01203457 3.4337291 49.55530294 3.30216641 53 3 C53.86625 2.46375 54.7325 1.9275 55.625 1.375 C56.40875 0.92125 57.1925 0.4675 58 0 C60.6875 0.75 60.6875 0.75 63 2 C66.06429776 3.53214888 68.6165642 3.22938548 72 3 C72.86625 2.46375 73.7325 1.9275 74.625 1.375 C75.40875 0.92125 76.1925 0.4675 77 0 C79.25 0.6875 79.25 0.6875 82 2 C83.54974576 2.39183336 85.1081459 2.7503739 86.671875 3.08203125 C87.88762207 3.34270386 87.88762207 3.34270386 89.12792969 3.60864258 C89.74571289 3.73779053 90.36349609 3.86693848 91 4 C91.05064837 10.49614132 91.0857117 16.99223185 91.10986328 23.48852539 C91.11993006 25.69915673 91.13358448 27.90977472 91.15087891 30.12036133 C91.17509738 33.29511811 91.18647627 36.46969906 91.1953125 39.64453125 C91.20563507 40.63524124 91.21595764 41.62595123 91.22659302 42.64668274 C91.22674408 43.56741074 91.22689514 44.48813873 91.22705078 45.43676758 C91.231492 46.2472908 91.23593323 47.05781403 91.24050903 47.89289856 C91 50 91 50 89 53 C87.21057796 53.3719368 87.21057796 53.3719368 85.00779724 53.36749268 C84.17349182 53.37306183 83.3391864 53.37863098 82.479599 53.3843689 C81.10415672 53.37054672 81.10415672 53.37054672 79.70092773 53.35644531 C78.25449387 53.35951187 78.25449387 53.35951187 76.77883911 53.36264038 C73.58023333 53.36565717 70.38213856 53.34714549 67.18359375 53.328125 C64.96924467 53.32506909 62.75489367 53.32319169 60.5405426 53.32244873 C55.89585028 53.31784015 51.2513308 53.30339197 46.60668945 53.28125 C40.6386006 53.25295075 34.670648 53.24203755 28.70249844 53.2375679 C24.12932458 53.2334207 19.55617856 53.22360938 14.98301888 53.21169281 C12.78168017 53.20597647 10.58033875 53.20122231 8.3789959 53.19742584 C5.30917476 53.19058754 2.23946396 53.17696721 -0.83032227 53.16113281 C-2.20880089 53.15945602 -2.20880089 53.15945602 -3.61512756 53.15774536 C-9.88531452 53.11468548 -9.88531452 53.11468548 -11 52 C-11.09311889 50.49581261 -11.11746028 48.98728644 -11.11352539 47.48022461 C-11.11344986 46.51930405 -11.11337433 45.55838348 -11.11329651 44.56834412 C-11.10813522 43.523564 -11.10297394 42.47878387 -11.09765625 41.40234375 C-11.0962413 40.33834854 -11.09482635 39.27435333 -11.09336853 38.17811584 C-11.08775064 34.76454917 -11.07519511 31.351047 -11.0625 27.9375 C-11.05748731 25.62955824 -11.052924 23.32161545 -11.04882812 21.01367188 C-11.0377754 15.34242574 -11.02101987 9.67121747 -11 4 C-9.1128125 3.566875 -9.1128125 3.566875 -7.1875 3.125 C-4.1460601 2.42696461 -2.69330122 1.79553415 0 0 Z M52 8 C51.67 8.99 51.34 9.98 51 11 C51.94875 11.5775 52.8975 12.155 53.875 12.75 C56.96224884 14.97281917 57.71459769 15.619868 59 19 C59.4140625 21.796875 59.4140625 21.796875 59.625 24.75 C59.69976562 25.73484375 59.77453125 26.7196875 59.8515625 27.734375 C59.90054688 28.48203125 59.94953125 29.2296875 60 30 C60.66 30 61.32 30 62 30 C63.45320819 25.64037544 63.81697376 21.44107823 62.3515625 17.0625 C59.9111213 12.22333454 56.82041702 10.31750818 52 8 Z M48 13 C48.66940637 16.09869127 48.66940637 16.09869127 51 17.1875 C54.14149245 20.03447753 53.73604126 22.84264977 54 27 C54 27.66 54 28.32 54 29 C54.99 29 55.98 29 57 29 C57.47189072 21.49443692 57.47189072 21.49443692 54 15 C51.18490007 12.7226499 51.18490007 12.7226499 48 13 Z M26 20 C22.43584232 24.05576564 21.69027082 27.60781382 21.7890625 33.01171875 C22.2553789 37.40718258 24.69895227 39.69195116 27.6875 42.75 C31.20919405 45.48909537 34.55315823 46.4322164 39 46 C42.9817367 44.71786654 46.06334517 42.90827135 49.0625 40 C50.15711668 38.05657415 50.15711668 38.05657415 49.9375 35.9375 C48.66805269 33.31397556 47.56069912 32.4151232 45 31 C41.34725531 30.27518916 41.34725531 30.27518916 38 30 C38.33 25.38 38.66 20.76 39 16 C31.52063195 15.97800664 31.52063195 15.97800664 26 20 Z M45 17 C45 17.99 45 18.98 45 20 C46.485 20.99 46.485 20.99 48 22 C48.6875 25.625 48.6875 25.625 49 29 C49.66 29 50.32 29 51 29 C51.95367452 26.29409604 51.95367452 26.29409604 52 23 C50.60547986 20.52333222 49.07260598 19.02440584 47 17 C46.34 17 45.68 17 45 17 Z M42 23 C42 24.32 42 25.64 42 27 C43.32 26.67 44.64 26.34 46 26 C45.67 25.01 45.34 24.02 45 23 C44.01 23 43.02 23 42 23 Z M19 38 C18.34 39.98 17.68 41.96 17 44 C18.98 44 20.96 44 23 44 C21.515 41.03 21.515 41.03 20 38 C19.67 38 19.34 38 19 38 Z " fill="#244958" transform="translate(37,70)"/>
<path d="M0 0 C0.66 0.33 1.32 0.66 2 1 C1.0409375 2.1446875 1.0409375 2.1446875 0.0625 3.3125 C-3.23661072 7.61134124 -3.56936236 11.72045813 -3 17 C-0.72653323 22.26487041 3.3454855 24.89699033 8 28 C6.02 28 4.04 28 2 28 C2 27.34 2 26.68 2 26 C0.68 26.33 -0.64 26.66 -2 27 C-1.01 28.32 -0.02 29.64 1 31 C-0.98 31.66 -2.96 32.32 -5 33 C-4.67 33.66 -4.34 34.32 -4 35 C-14.56 35 -25.12 35 -36 35 C-32.03379202 33.01689601 -30.60857712 32.75948322 -26.359375 32.8046875 C-25.28945313 32.81113281 -24.21953125 32.81757812 -23.1171875 32.82421875 C-22.00601563 32.84097656 -20.89484375 32.85773438 -19.75 32.875 C-18.62335937 32.88402344 -17.49671875 32.89304688 -16.3359375 32.90234375 C-13.55707635 32.92589342 -10.7786461 32.9587832 -8 33 C-7.896875 32.05125 -7.79375 31.1025 -7.6875 30.125 C-7 27 -7 27 -4 25 C-4.66 24.01 -5.32 23.02 -6 22 C-6.19483979 19.26937763 -6.27893643 16.66475836 -6.25 13.9375 C-6.25773437 13.20466797 -6.26546875 12.47183594 -6.2734375 11.71679688 C-6.25100107 5.60847931 -4.14685672 4.14685672 0 0 Z " fill="#2C4752" transform="translate(63,88)"/>
<path d="M0 0 C4.89213457 1.54011644 7.50046182 4.90377465 10.375 9.0625 C10.375 9.7225 10.375 10.3825 10.375 11.0625 C3.12009804 13.23897059 3.12009804 13.23897059 0 12.5 C-2.92003516 9.91689197 -3.55337756 7.11296247 -3.8125 3.3125 C-3.54100436 0.05455233 -3.30359722 0.07865708 0 0 Z " fill="#294854" transform="translate(70.625,100.9375)"/>
<path d="M0 0 C-0.0721875 0.61488281 -0.144375 1.22976562 -0.21875 1.86328125 C-0.3115625 2.67152344 -0.404375 3.47976562 -0.5 4.3125 C-0.5928125 5.11300781 -0.685625 5.91351563 -0.78125 6.73828125 C-1.04813463 9.11896555 -1.04813463 9.11896555 -1 12 C-2.65 11.67 -4.3 11.34 -6 11 C-6.66 8.03 -7.32 5.06 -8 2 C-4.77208445 -0.1519437 -3.71599191 -0.20086443 0 0 Z " fill="#274651" transform="translate(74,88)"/>
<path d="M0 0 C2 3 2 3 1.7578125 5.48046875 C1.54898437 6.37378906 1.34015625 7.26710938 1.125 8.1875 C0.92132812 9.08855469 0.71765625 9.98960938 0.5078125 10.91796875 C0.34023438 11.60503906 0.17265625 12.29210938 0 13 C-0.99 13 -1.98 13 -3 13 C-3.33 14.98 -3.66 16.96 -4 19 C-4.66 19 -5.32 19 -6 19 C-4.47214176 12.40095271 -2.92382423 6.12610791 0 0 Z " fill="#2C4650" transform="translate(28,31)"/>
<path d="M0 0 C0.886875 0.433125 1.77375 0.86625 2.6875 1.3125 C5.33810995 2.05922034 8.00721286 2.67649966 10.6875 3.3125 C10.6875 3.6425 10.6875 3.9725 10.6875 4.3125 C10.01203125 4.30089844 9.3365625 4.28929688 8.640625 4.27734375 C7.74859375 4.26832031 6.8565625 4.25929688 5.9375 4.25 C5.05578125 4.23839844 4.1740625 4.22679688 3.265625 4.21484375 C0.9056162 4.30423802 -1.05748524 4.64337179 -3.3125 5.3125 C-3.3125 4.6525 -3.3125 3.9925 -3.3125 3.3125 C-4.6325 2.9825 -5.9525 2.6525 -7.3125 2.3125 C-2.99921121 -0.89165739 -2.99921121 -0.89165739 0 0 Z " fill="#27444E" transform="translate(97.3125,70.6875)"/>
<path d="M0 0 C1.32 0.33 2.64 0.66 4 1 C4.33 4.3 4.66 7.6 5 11 C2 10 2 10 0.8125 7.75 C0.00061706 5.00208853 -0.16260121 2.84552111 0 0 Z " fill="#284649" transform="translate(61,99)"/>
<path d="M0 0 C2.31 0.66 4.62 1.32 7 2 C7 3.32 7 4.64 7 6 C2.25 5.25 2.25 5.25 0 3 C0 2.01 0 1.02 0 0 Z " fill="#2A444B" transform="translate(77,102)"/>
<path d="M0 0 C4.95 0.99 4.95 0.99 10 2 C10 2.99 10 3.98 10 5 C7.03 4.67 4.06 4.34 1 4 C0.67 2.68 0.34 1.36 0 0 Z " fill="#2A4650" transform="translate(118,72)"/>
<path d="M0 0 C0.99 0.66 1.98 1.32 3 2 C3 2.66 3 3.32 3 4 C-4.38461538 6.21538462 -4.38461538 6.21538462 -7.5 5.125 C-7.995 4.75375 -8.49 4.3825 -9 4 C-9 3.67 -9 3.34 -9 3 C-6.03 3 -3.06 3 0 3 C0 2.01 0 1.02 0 0 Z " fill="#253F48" transform="translate(78,108)"/>
<path d="M0 0 C2.31 0 4.62 0 7 0 C7 0.99 7 1.98 7 3 C4.36 3 1.72 3 -1 3 C-0.67 2.01 -0.34 1.02 0 0 Z " fill="#214C5D" transform="translate(70,108)"/>
<path d="M0 0 C0.33 0 0.66 0 1 0 C1.66 3.3 2.32 6.6 3 10 C2.01 10 1.02 10 0 10 C-0.95024979 6.30458414 -0.95024979 3.69541586 0 0 Z " fill="#2D4453" transform="translate(75,90)"/>
<path d="M0 0 C0.99 0 1.98 0 3 0 C3.33 1.32 3.66 2.64 4 4 C2.02 4.33 0.04 4.66 -2 5 C-1.34 3.35 -0.68 1.7 0 0 Z " fill="#284651" transform="translate(69,82)"/>
<path d="M0 0 C1.485 0.99 1.485 0.99 3 2 C3.1875 4.625 3.1875 4.625 3 7 C2.01 7.495 2.01 7.495 1 8 C0.67 5.36 0.34 2.72 0 0 Z " fill="#2E4A51" transform="translate(61,99)"/>
<path d="M0 0 C0.66 0.33 1.32 0.66 2 1 C2 2.65 2 4.3 2 6 C1.01 5.67 0.02 5.34 -1 5 C-0.67 3.35 -0.34 1.7 0 0 Z " fill="#263940" transform="translate(64,93)"/>
</svg>
