<svg width="18" height="18" viewBox="0 0 18 18" fill="none" xmlns="http://www.w3.org/2000/svg">
<path d="M16.3069 9.41129C17.896 7.42496 17.896 4.20817 16.3069 2.22184C14.9006 0.464025 12.6844 0.235509 11.0672 1.68043L11.0222 1.7191C10.6172 2.08121 10.5244 2.78434 10.8141 3.28707C11.1038 3.78981 11.6663 3.90934 12.0685 3.54723L12.1135 3.50856C13.0163 2.70348 14.251 2.83004 15.0328 3.8109C15.9188 4.91832 15.9188 6.71129 15.0328 7.81871L11.8772 11.7703C10.9913 12.8777 9.55689 12.8777 8.67095 11.7703C7.88626 10.7894 7.78501 9.24606 8.42908 8.12106L8.46001 8.06481C8.7497 7.55856 8.65408 6.85543 8.25189 6.49684C7.8497 6.13824 7.28439 6.25426 6.99751 6.75699L6.96658 6.81324C5.80783 8.83121 5.99064 11.6015 7.39689 13.3593C8.98595 15.3457 11.5594 15.3457 13.1485 13.3593L16.3069 9.41129ZM1.69314 8.58863C0.104077 10.575 0.104077 13.7918 1.69314 15.7781C3.09939 17.5359 5.31564 17.7644 6.93283 16.3195L6.97783 16.2808C7.38283 15.9187 7.47564 15.2156 7.18595 14.7129C6.89626 14.2101 6.33376 14.0906 5.93158 14.4527L5.88658 14.4914C4.98376 15.2964 3.74908 15.1699 2.9672 14.189C2.08126 13.0781 2.08126 11.2851 2.9672 10.1777L6.12283 6.22965C7.00876 5.12223 8.44314 5.12223 9.32908 6.22965C10.1138 7.21051 10.215 8.75387 9.57095 9.88238L9.54001 9.93863C9.25033 10.4449 9.34595 11.148 9.74814 11.5066C10.1503 11.8652 10.7156 11.7492 11.0025 11.2464L11.0335 11.1902C12.1922 9.16871 12.0094 6.3984 10.6031 4.64059C9.01408 2.65426 6.44064 2.65426 4.85158 4.64059L1.69314 8.58863Z" fill="#9CA3AF"/>
</svg>
