<svg width="25" height="22" viewBox="0 0 25 22" fill="none" xmlns="http://www.w3.org/2000/svg">
<path d="M22.335 10.0579C22.8058 10.0396 23.2502 9.83572 23.571 9.49072C23.8918 9.14573 24.063 8.68789 24.0471 8.21704V8.03394V8.021L22.21 1.96192C22.1255 1.68313 21.9535 1.43891 21.7193 1.26563C21.4851 1.09234 21.2013 0.999307 20.91 1H4.13798C3.84668 0.999307 3.56295 1.09234 3.32878 1.26563C3.09461 1.43891 2.92243 1.68313 2.83794 1.96192L1.00102 8.021V8.03394V8.21704C0.985072 8.68789 1.15615 9.14573 1.47697 9.49072C1.7978 9.83572 2.24217 10.0396 2.71294 10.0579C3.05515 10.0513 3.38759 9.94248 3.6674 9.74536C3.94722 9.54825 4.16165 9.27194 4.283 8.95191C4.31388 8.87308 4.36774 8.80553 4.43767 8.75781C4.5076 8.7101 4.59032 8.68457 4.67497 8.68457C4.75963 8.68457 4.84235 8.7101 4.91228 8.75781C4.98221 8.80553 5.03606 8.87308 5.06694 8.95191C5.18253 9.27577 5.39549 9.55603 5.67656 9.75415C5.95763 9.95227 6.29313 10.0586 6.63701 10.0586C6.98089 10.0586 7.31639 9.95227 7.59746 9.75415C7.87853 9.55603 8.09136 9.27577 8.20695 8.95191C8.23783 8.87308 8.29181 8.80553 8.36174 8.75781C8.43167 8.7101 8.51427 8.68457 8.59892 8.68457C8.68358 8.68457 8.7663 8.7101 8.83623 8.75781C8.90616 8.80553 8.96014 8.87308 8.99101 8.95191C9.1066 9.27577 9.31944 9.55603 9.60051 9.75415C9.88158 9.95227 10.2171 10.0586 10.561 10.0586C10.9048 10.0586 11.2403 9.95227 11.5214 9.75415C11.8025 9.55603 12.0154 9.27577 12.131 8.95191C12.1619 8.87308 12.2158 8.80553 12.2857 8.75781C12.3556 8.7101 12.4383 8.68457 12.523 8.68457C12.6077 8.68457 12.6904 8.7101 12.7603 8.75781C12.8302 8.80553 12.8841 8.87308 12.915 8.95191C13.0306 9.27577 13.2435 9.55603 13.5246 9.75415C13.8057 9.95227 14.1412 10.0586 14.485 10.0586C14.8289 10.0586 15.1643 9.95227 15.4454 9.75415C15.7264 9.55603 15.9394 9.27577 16.055 8.95191C16.0859 8.87308 16.1398 8.80553 16.2098 8.75781C16.2797 8.7101 16.3623 8.68457 16.447 8.68457C16.5316 8.68457 16.6143 8.7101 16.6843 8.75781C16.7542 8.80553 16.8082 8.87308 16.839 8.95191C16.9546 9.27577 17.1675 9.55603 17.4485 9.75415C17.7296 9.95227 18.0651 10.0586 18.409 10.0586C18.7529 10.0586 19.0884 9.95227 19.3694 9.75415C19.6505 9.55603 19.8633 9.27577 19.9789 8.95191C20.0098 8.87308 20.0638 8.80553 20.1337 8.75781C20.2037 8.7101 20.2864 8.68457 20.371 8.68457C20.4557 8.68457 20.5383 8.7101 20.6082 8.75781C20.6781 8.80553 20.7321 8.87308 20.763 8.95191C20.8845 9.27226 21.0991 9.54895 21.3793 9.7461C21.6595 9.94324 21.9925 10.0517 22.335 10.0579Z" stroke="#9CA3AF" stroke-width="1.5"/>
<path d="M22.335 11.0581C22.0882 10.7818 21.7859 10.561 21.4478 10.4097C21.1097 10.2584 20.7433 10.1802 20.3729 10.1802C20.0025 10.1802 19.6363 10.2584 19.2982 10.4097C18.9601 10.561 18.6577 10.7818 18.4109 11.0581C18.1641 10.7818 17.8618 10.561 17.5237 10.4097C17.1856 10.2584 16.8194 10.1802 16.449 10.1802C16.0786 10.1802 15.7122 10.2584 15.3741 10.4097C15.036 10.561 14.7337 10.7818 14.4869 11.0581C14.2401 10.7818 13.9378 10.561 13.5997 10.4097C13.2616 10.2584 12.8953 10.1802 12.5249 10.1802C12.1545 10.1802 11.7883 10.2584 11.4502 10.4097C11.1121 10.561 10.8098 10.7818 10.563 11.0581C10.3162 10.7818 10.0138 10.561 9.67565 10.4097C9.33755 10.2584 8.97136 10.1802 8.60094 10.1802C8.23052 10.1802 7.86422 10.2584 7.52611 10.4097C7.18801 10.561 6.8857 10.7818 6.63891 11.0581C6.39211 10.7818 6.0898 10.561 5.7517 10.4097C5.4136 10.2584 5.04729 10.1802 4.67687 10.1802C4.30645 10.1802 3.94027 10.2584 3.60216 10.4097C3.26406 10.561 2.96175 10.7818 2.71496 11.0581C2.56318 11.0553 2.41191 11.0394 2.26293 11.0102V20.0212C2.25033 20.1676 2.29566 20.3129 2.38915 20.4262C2.48264 20.5395 2.61684 20.6117 2.76293 20.6272H6.04894C6.19503 20.6117 6.32923 20.5395 6.42272 20.4262C6.51621 20.3129 6.56154 20.1676 6.54894 20.0212V15.1762H9.71288V20.0212C9.70028 20.1676 9.74561 20.3129 9.8391 20.4262C9.93259 20.5395 10.0668 20.6117 10.2129 20.6272H22.2789C22.425 20.6117 22.5592 20.5395 22.6527 20.4262C22.7462 20.3129 22.7915 20.1676 22.7789 20.0212V11.0102C22.6326 11.0389 22.4841 11.0548 22.335 11.0581ZM16.4839 18.6653H13.4839V15.8733H16.4839V18.6653ZM16.4839 15.4311H13.4839V12.6391H16.4839V15.4311ZM19.924 18.6653H16.924V15.8733H19.924V18.6653ZM19.924 15.4311H16.924V12.6391H19.924V15.4311Z" stroke="#9CA3AF" stroke-width="1.5"/>
</svg>
