<svg width="22" height="20" viewBox="0 0 22 20" fill="none" xmlns="http://www.w3.org/2000/svg">
<g clip-path="url(#clip0_323_1972)">
<path d="M0.894897 0.929196C0.686807 0.921896 0.484355 0.997216 0.331787 1.13891C0.179219 1.28061 0.0890064 1.47699 0.0809326 1.68506V6.46801H21.651V1.68506C21.6429 1.47699 21.5527 1.28061 21.4001 1.13891C21.2476 0.997216 21.045 0.921896 20.8369 0.929196H0.894897Z" fill="#005466"/>
<path d="M1.85193 7.64404V17.9551C1.85193 18.4855 2.06267 18.9943 2.43774 19.3694C2.81282 19.7445 3.3215 19.9551 3.85193 19.9551H17.8739C18.4043 19.9551 18.9131 19.7445 19.2882 19.3694C19.6633 18.9943 19.8739 18.4855 19.8739 17.9551V7.64404H1.85193ZM14.401 12.3201C14.129 12.5919 13.806 12.8075 13.4507 12.9546C13.0953 13.1016 12.7145 13.1772 12.33 13.177H9.401C9.01642 13.1773 8.63551 13.1019 8.28015 12.9548C7.92479 12.8078 7.6019 12.592 7.32996 12.3201C7.05801 12.0481 6.84237 11.7252 6.69531 11.3699C6.54826 11.0145 6.47264 10.6336 6.4729 10.249H15.2589C15.2589 11.0258 14.9503 11.7708 14.401 12.3201Z" fill="#005466"/>
</g>
<defs>
<clipPath id="clip0_323_1972">
<rect width="22" height="20" fill="white"/>
</clipPath>
</defs>
</svg>
