<svg width="22" height="21" viewBox="0 0 22 21" fill="none" xmlns="http://www.w3.org/2000/svg">
<path d="M21.208 15.6389H20.562L19.03 5.20679C19.0154 5.10589 18.9648 5.01369 18.8877 4.94702C18.8106 4.88035 18.7119 4.8439 18.61 4.84399H17.129C17.3684 4.67863 17.5641 4.45754 17.6995 4.19995C17.8348 3.94237 17.9057 3.65596 17.906 3.36499V1.7998C17.906 1.56343 17.8595 1.32947 17.769 1.11108C17.6786 0.892698 17.5459 0.694245 17.3788 0.5271C17.2116 0.359954 17.0132 0.227421 16.7948 0.136963C16.5764 0.0465044 16.3423 0 16.106 0H11.283C11.0466 0 10.8126 0.0465044 10.5942 0.136963C10.3759 0.227421 10.1774 0.359954 10.0103 0.5271C9.84311 0.694245 9.71045 0.892698 9.62 1.11108C9.52954 1.32947 9.48303 1.56343 9.48303 1.7998V3.36499C9.48336 3.65596 9.55425 3.94237 9.68958 4.19995C9.8249 4.45754 10.0206 4.67863 10.26 4.84399H3.02197C2.92002 4.8439 2.82152 4.88035 2.74438 4.94702C2.66725 5.01369 2.61672 5.10589 2.60205 5.20679L1.07007 15.6389H0.42395C0.311498 15.6389 0.203661 15.6837 0.124146 15.7632C0.0446301 15.8427 0 15.9505 0 16.063V20.1108C0 20.2233 0.0446301 20.3311 0.124146 20.4106C0.203661 20.4902 0.311498 20.5349 0.42395 20.5349H21.208C21.3205 20.5349 21.4283 20.4902 21.5078 20.4106C21.5873 20.3311 21.632 20.2233 21.632 20.1108V16.063C21.632 15.9505 21.5873 15.8427 21.5078 15.7632C21.4283 15.6837 21.3205 15.6389 21.208 15.6389ZM17.26 8.20288V9.11377H15.708V8.20288H17.26ZM15.708 10.9089V9.9978H17.26V10.9089H15.708ZM17.26 11.7939V12.7039H15.708V11.7939H17.26ZM11.0131 2.09399C11.03 1.85198 11.1418 1.62625 11.3242 1.46631C11.5066 1.30637 11.7449 1.22516 11.9871 1.23999H15.406C15.6482 1.22516 15.8863 1.30637 16.0687 1.46631C16.2511 1.62625 16.3631 1.85198 16.38 2.09399V3.06689C16.3631 3.30891 16.2511 3.53439 16.0687 3.69434C15.8863 3.85428 15.6482 3.93573 15.406 3.9209H11.9871C11.7449 3.93573 11.5066 3.85428 11.3242 3.69434C11.1418 3.53439 11.03 3.30891 11.0131 3.06689V2.09399ZM12.538 10.907V9.99585H14.09V10.907H12.538ZM14.09 11.792V12.7019H12.538V11.792H14.09ZM12.538 9.11182V8.20093H14.09V9.11182H12.538ZM3.83801 6.95288H10.821V9.45288H3.83801V6.95288ZM20.199 18.085H1.44299V16.803H20.199V18.085Z" fill="#005466"/>
</svg>
