<svg width="22" height="22" viewBox="0 0 22 22" fill="none" xmlns="http://www.w3.org/2000/svg">
<path d="M3.5 1C2.80859 1 2.25 1.55859 2.25 2.25V4.75C2.25 5.44141 2.80859 6 3.5 6H6.625V7.25H4.39844C3.16406 7.25 2.11328 8.15234 1.92578 9.375L1.04297 15.2227C1.01562 15.4062 1 15.5938 1 15.7812V18.5C1 19.8789 2.12109 21 3.5 21H18.5C19.8789 21 21 19.8789 21 18.5V15.7812C21 15.5938 20.9844 15.4062 20.957 15.2188L20.0703 9.375C19.8867 8.15234 18.8359 7.25 17.6016 7.25H9.125V6H12.25C12.9414 6 13.5 5.44141 13.5 4.75V2.25C13.5 1.55859 12.9414 1 12.25 1H3.5ZM4.75 2.875H11C11.3438 2.875 11.625 3.15625 11.625 3.5C11.625 3.84375 11.3438 4.125 11 4.125H4.75C4.40625 4.125 4.125 3.84375 4.125 3.5C4.125 3.15625 4.40625 2.875 4.75 2.875ZM3.5 17.875C3.5 17.5312 3.78125 17.25 4.125 17.25H17.875C18.2188 17.25 18.5 17.5312 18.5 17.875C18.5 18.2188 18.2188 18.5 17.875 18.5H4.125C3.78125 18.5 3.5 18.2188 3.5 17.875ZM5.375 11.3125C5.12636 11.3125 4.8879 11.2137 4.71209 11.0379C4.53627 10.8621 4.4375 10.6236 4.4375 10.375C4.4375 10.1264 4.53627 9.8879 4.71209 9.71209C4.8879 9.53627 5.12636 9.4375 5.375 9.4375C5.62364 9.4375 5.8621 9.53627 6.03791 9.71209C6.21373 9.8879 6.3125 10.1264 6.3125 10.375C6.3125 10.6236 6.21373 10.8621 6.03791 11.0379C5.8621 11.2137 5.62364 11.3125 5.375 11.3125ZM10.0625 10.375C10.0625 10.6236 9.96373 10.8621 9.78791 11.0379C9.6121 11.2137 9.37364 11.3125 9.125 11.3125C8.87636 11.3125 8.6379 11.2137 8.46209 11.0379C8.28627 10.8621 8.1875 10.6236 8.1875 10.375C8.1875 10.1264 8.28627 9.8879 8.46209 9.71209C8.6379 9.53627 8.87636 9.4375 9.125 9.4375C9.37364 9.4375 9.6121 9.53627 9.78791 9.71209C9.96373 9.8879 10.0625 10.1264 10.0625 10.375ZM7.25 14.4375C7.00136 14.4375 6.7629 14.3387 6.58709 14.1629C6.41127 13.9871 6.3125 13.7486 6.3125 13.5C6.3125 13.2514 6.41127 13.0129 6.58709 12.8371C6.7629 12.6613 7.00136 12.5625 7.25 12.5625C7.49864 12.5625 7.7371 12.6613 7.91291 12.8371C8.08873 13.0129 8.1875 13.2514 8.1875 13.5C8.1875 13.7486 8.08873 13.9871 7.91291 14.1629C7.7371 14.3387 7.49864 14.4375 7.25 14.4375ZM13.8125 10.375C13.8125 10.6236 13.7137 10.8621 13.5379 11.0379C13.3621 11.2137 13.1236 11.3125 12.875 11.3125C12.6264 11.3125 12.3879 11.2137 12.2121 11.0379C12.0363 10.8621 11.9375 10.6236 11.9375 10.375C11.9375 10.1264 12.0363 9.8879 12.2121 9.71209C12.3879 9.53627 12.6264 9.4375 12.875 9.4375C13.1236 9.4375 13.3621 9.53627 13.5379 9.71209C13.7137 9.8879 13.8125 10.1264 13.8125 10.375ZM11 14.4375C10.7514 14.4375 10.5129 14.3387 10.3371 14.1629C10.1613 13.9871 10.0625 13.7486 10.0625 13.5C10.0625 13.2514 10.1613 13.0129 10.3371 12.8371C10.5129 12.6613 10.7514 12.5625 11 12.5625C11.2486 12.5625 11.4871 12.6613 11.6629 12.8371C11.8387 13.0129 11.9375 13.2514 11.9375 13.5C11.9375 13.7486 11.8387 13.9871 11.6629 14.1629C11.4871 14.3387 11.2486 14.4375 11 14.4375ZM17.5625 10.375C17.5625 10.4981 17.5383 10.62 17.4911 10.7338C17.444 10.8475 17.375 10.9509 17.2879 11.0379C17.2009 11.125 17.0975 11.194 16.9838 11.2411C16.87 11.2883 16.7481 11.3125 16.625 11.3125C16.5019 11.3125 16.38 11.2883 16.2662 11.2411C16.1525 11.194 16.0491 11.125 15.9621 11.0379C15.875 10.9509 15.806 10.8475 15.7589 10.7338C15.7117 10.62 15.6875 10.4981 15.6875 10.375C15.6875 10.2519 15.7117 10.13 15.7589 10.0162C15.806 9.90249 15.875 9.79914 15.9621 9.71209C16.0491 9.62503 16.1525 9.55598 16.2662 9.50886C16.38 9.46175 16.5019 9.4375 16.625 9.4375C16.7481 9.4375 16.87 9.46175 16.9838 9.50886C17.0975 9.55598 17.2009 9.62503 17.2879 9.71209C17.375 9.79914 17.444 9.90249 17.4911 10.0162C17.5383 10.13 17.5625 10.2519 17.5625 10.375ZM14.75 14.4375C14.5014 14.4375 14.2629 14.3387 14.0871 14.1629C13.9113 13.9871 13.8125 13.7486 13.8125 13.5C13.8125 13.2514 13.9113 13.0129 14.0871 12.8371C14.2629 12.6613 14.5014 12.5625 14.75 12.5625C14.9986 12.5625 15.2371 12.6613 15.4129 12.8371C15.5887 13.0129 15.6875 13.2514 15.6875 13.5C15.6875 13.7486 15.5887 13.9871 15.4129 14.1629C15.2371 14.3387 14.9986 14.4375 14.75 14.4375Z" stroke="#9CA3AF" stroke-width="1.5"/>
</svg>
