<svg width="16" height="20" viewBox="0 0 16 20" fill="none" xmlns="http://www.w3.org/2000/svg">
<path d="M5.15312 0.960964C4.9125 0.234401 4.27812 -0.152317 3.67188 0.0547138L0.921875 0.992214C0.378125 1.17971 0 1.7969 0 2.50003C0 12.1641 6.26875 20 14 20C14.5625 20 15.0563 19.5274 15.2063 18.8477L15.9563 15.4102C16.1219 14.6524 15.8125 13.8594 15.2312 13.5586L12.2312 11.9961C11.7219 11.7305 11.1313 11.9141 10.7844 12.4492L9.52188 14.375C7.32188 13.0742 5.54063 10.8477 4.5 8.09768L6.04063 6.52346C6.46875 6.08596 6.61562 5.35159 6.40312 4.71487L5.15312 0.96487V0.960964Z" fill="#9CA3AF"/>
</svg>
