<svg width="22" height="20" viewBox="0 0 22 20" fill="none" xmlns="http://www.w3.org/2000/svg">
<path d="M0.800813 0.750485L0.78767 0.750024C0.777589 0.74967 0.768202 0.75329 0.76125 0.759741L0.800813 0.750485ZM0.800813 0.750485H0.813964M0.800813 0.750485H0.813964M0.813964 0.750485H20.756H20.7691L20.7823 0.750024C20.7925 0.749664 20.802 0.753409 20.8087 0.759639L20.8088 0.759793C20.8147 0.76526 20.8186 0.77247 20.8201 0.780332M0.813964 0.750485L20.8201 0.780332M20.8201 0.780332V4.7893H0.75V0.780278C0.751415 0.77247 0.755323 0.765251 0.761239 0.759752L20.8201 0.780332Z" stroke="#9CA3AF" stroke-width="1.5"/>
<path d="M1.771 6.71533V17.0264C1.771 17.5568 1.98174 18.0656 2.35681 18.4407C2.73189 18.8158 3.24057 19.0264 3.771 19.0264H17.793C18.3234 19.0264 18.8322 18.8158 19.2073 18.4407C19.5824 18.0656 19.793 17.5568 19.793 17.0264V6.71533H1.771ZM14.3201 11.3914C14.0481 11.6632 13.7251 11.8788 13.3698 12.0259C13.0144 12.1729 12.6336 12.2485 12.2491 12.2483H9.32007C8.93549 12.2486 8.55458 12.1732 8.19922 12.0261C7.84386 11.8791 7.52097 11.6633 7.24903 11.3914C6.97708 11.1194 6.76144 10.7965 6.61438 10.4412C6.46733 10.0858 6.39171 9.70489 6.39197 9.32029H15.178C15.178 10.0971 14.8694 10.8421 14.3201 11.3914Z" stroke="#9CA3AF" stroke-width="1.5"/>
</svg>
