<svg width="25" height="22" viewBox="0 0 25 22" fill="none" xmlns="http://www.w3.org/2000/svg">
<path d="M23.4922 10.9805C23.4922 11.6836 22.9063 12.2344 22.2422 12.2344H20.9922L21.0195 18.4922C21.0195 18.5977 21.0117 18.7031 21 18.8086V19.4375C21 20.3008 20.3008 21 19.4375 21H18.8125C18.7695 21 18.7266 21 18.6836 20.9961C18.6289 21 18.5742 21 18.5195 21H17.25H16.3125C15.4492 21 14.75 20.3008 14.75 19.4375V18.5V16C14.75 15.3086 14.1914 14.75 13.5 14.75H11C10.3086 14.75 9.75 15.3086 9.75 16V18.5V19.4375C9.75 20.3008 9.05078 21 8.1875 21H7.25H6.00391C5.94531 21 5.88672 20.9961 5.82813 20.9922C5.78125 20.9961 5.73438 21 5.6875 21H5.0625C4.19922 21 3.5 20.3008 3.5 19.4375V15.0625C3.5 15.0273 3.5 14.9883 3.50391 14.9531V12.2344H2.25C1.54688 12.2344 1 11.6875 1 10.9805C1 10.6289 1.11719 10.3164 1.39063 10.043L11.4063 1.3125C11.6797 1.03906 11.9922 1 12.2656 1C12.5391 1 12.8516 1.07812 13.0859 1.27344L23.0625 10.043C23.375 10.3164 23.5313 10.6289 23.4922 10.9805Z" stroke="#9CA3AF" stroke-width="2"/>
</svg>
