<svg width="20" height="22" viewBox="0 0 20 22" fill="none" xmlns="http://www.w3.org/2000/svg">
<path d="M16.8664 11.1815C16.8636 9.65114 16.3509 8.16549 15.4091 6.95914C14.4674 5.7528 13.1503 4.8947 11.6663 4.52067C11.5932 4.50275 11.5171 4.50163 11.4435 4.51725C11.3699 4.53286 11.3008 4.56471 11.2413 4.61075C11.1818 4.65679 11.1335 4.7158 11.0999 4.78312C11.0663 4.85044 11.0484 4.92444 11.0474 4.99967C11.0473 5.08773 11.0236 5.17429 10.9789 5.25016C10.9342 5.32603 10.87 5.38858 10.793 5.43131C10.716 5.47404 10.6291 5.49528 10.541 5.49308C10.453 5.49088 10.3671 5.46514 10.2924 5.41861L7.48633 3.66568C7.41524 3.62129 7.35656 3.55954 7.31592 3.48624C7.27528 3.41294 7.25403 3.33055 7.25403 3.24674C7.25403 3.16293 7.27528 3.08054 7.31592 3.00724C7.35656 2.93394 7.41524 2.87195 7.48633 2.82755L10.2924 1.07462C10.3671 1.02809 10.453 1.00236 10.541 1.00015C10.6291 0.997953 10.716 1.01943 10.793 1.06217C10.87 1.1049 10.9342 1.16745 10.9789 1.24332C11.0236 1.31919 11.0473 1.4055 11.0474 1.49357V1.82755C11.047 1.94388 11.0877 2.05666 11.1626 2.14567C11.2375 2.23467 11.3416 2.29421 11.4563 2.31363C13.2369 2.60558 14.8881 3.42722 16.1947 4.67154C17.5013 5.91586 18.4026 7.52505 18.781 9.28922C19.1595 11.0534 18.9976 12.8906 18.3164 14.5614C17.6353 16.2322 16.4664 17.659 14.9623 18.6557C14.8835 18.7066 14.7916 18.7338 14.6978 18.7338C14.6039 18.7338 14.5122 18.7066 14.4334 18.6557L13.3724 17.9936C13.3 17.9478 13.2408 17.8841 13.2006 17.8085C13.1604 17.7329 13.1407 17.6482 13.1432 17.5626C13.1458 17.4771 13.1704 17.3936 13.215 17.3205C13.2596 17.2474 13.3225 17.1871 13.3974 17.1457C14.4495 16.545 15.3244 15.6773 15.9335 14.63C16.5427 13.5828 16.8645 12.3931 16.8664 11.1815Z" stroke="#9CA3AF"/>
<path d="M5.54738 3.69995L6.60829 4.36304C6.68065 4.40869 6.73984 4.47233 6.78005 4.54785C6.82025 4.62337 6.84019 4.70818 6.83766 4.7937C6.83514 4.87922 6.81036 4.96263 6.76576 5.03565C6.72117 5.10866 6.6582 5.16866 6.58327 5.20996C5.39156 5.88862 4.43038 6.90862 3.8235 8.13843C3.21662 9.36824 2.9919 10.7517 3.17824 12.1104C3.36458 13.469 3.95347 14.7407 4.86903 15.7617C5.7846 16.7827 6.98491 17.5064 8.31532 17.8391C8.38839 17.857 8.46451 17.8581 8.5381 17.8425C8.6117 17.8269 8.68088 17.7948 8.74037 17.7488C8.79987 17.7027 8.84815 17.644 8.88173 17.5767C8.91531 17.5093 8.93335 17.4353 8.93434 17.3601C8.9341 17.2719 8.95746 17.1852 9.00209 17.1091C9.04673 17.0331 9.11101 16.9703 9.18813 16.9275C9.26524 16.8847 9.35241 16.8634 9.44057 16.8657C9.52873 16.8681 9.61464 16.8941 9.68935 16.9409L12.4893 18.6941C12.5602 18.7385 12.6186 18.8001 12.6591 18.8733C12.6996 18.9465 12.7209 19.0289 12.7209 19.1126C12.7209 19.1962 12.6996 19.2784 12.6591 19.3516C12.6186 19.4248 12.5602 19.4866 12.4893 19.531L9.68935 21.2839C9.61464 21.3308 9.52873 21.3568 9.44057 21.3591C9.35241 21.3615 9.26524 21.3402 9.18813 21.2974C9.11101 21.2546 9.04673 21.192 9.00209 21.116C8.95746 21.0399 8.9341 20.9532 8.93434 20.865V20.53C8.93455 20.4139 8.8935 20.3014 8.81862 20.2126C8.74374 20.1238 8.63981 20.0643 8.52528 20.0449C6.74468 19.7531 5.09336 18.9315 3.78664 17.6873C2.47991 16.443 1.57844 14.834 1.19984 13.0698C0.821246 11.3056 0.983057 9.46822 1.6642 7.79737C2.34534 6.12651 3.51423 4.69957 5.01833 3.70288C5.09697 3.65182 5.1886 3.62456 5.28237 3.62403C5.37613 3.62349 5.46816 3.64978 5.54738 3.69995Z" stroke="#9CA3AF"/>
<path d="M10.4023 7.95699L10.4023 7.95701C10.6121 8.16687 10.7303 8.45148 10.7303 8.74878V12.383L12.4814 13.3995C12.61 13.4695 12.7241 13.5642 12.8168 13.6788M10.4023 7.95699L11.8489 14.9956C11.7667 14.9825 11.6879 14.953 11.6174 14.9089M10.4023 7.95699C10.1923 7.74705 9.90754 7.62891 9.61035 7.62891C9.31327 7.62891 9.02833 7.74698 8.81832 7.95699C8.60827 8.16705 8.49036 8.45175 8.49036 8.74878V13.0139V13.0492L8.49532 13.0842C8.49911 13.1109 8.50393 13.1377 8.50988 13.1646M10.4023 7.95699L8.80175 13.7878M12.8168 13.6788L12.428 13.9931L12.8165 13.6785C12.8166 13.6786 12.8167 13.6787 12.8168 13.6788ZM12.8168 13.6788C12.9113 13.7956 12.9813 13.9301 13.0227 14.0744L13.0229 14.0748C13.0643 14.2196 13.076 14.371 13.0576 14.52C13.0393 14.6694 12.991 14.8134 12.9159 14.9435L12.9158 14.9437C12.8404 15.074 12.7396 15.1875 12.6198 15.2778C12.4998 15.3682 12.3627 15.4337 12.2167 15.47L12.2166 15.47C12.0709 15.5063 11.9193 15.513 11.7708 15.4895L11.7702 15.4894C11.625 15.4663 11.4857 15.4148 11.3603 15.3379M11.3603 15.3379L11.3665 15.3414L11.6174 14.9089M11.3603 15.3379L9.04941 13.9974L9.03745 13.9905L9.02589 13.9829C8.94223 13.928 8.86697 13.8622 8.80175 13.7878M11.3603 15.3379C11.3576 15.3362 11.3549 15.3345 11.3522 15.3328L11.6174 14.9089M11.6174 14.9089L8.80175 13.7878M8.80175 13.7878C8.80523 13.7915 8.80873 13.7952 8.81227 13.7988L9.17236 13.4519L8.7918 13.7762C8.79509 13.7801 8.79841 13.7839 8.80175 13.7878ZM8.80175 13.7878C8.72123 13.7018 8.65485 13.6034 8.60542 13.4962M8.60542 13.4962L8.60906 13.5034L9.05628 13.2798L8.59967 13.4836C8.60156 13.4878 8.60348 13.492 8.60542 13.4962ZM8.60542 13.4962L8.60515 13.4957L8.59718 13.4798C8.59067 13.4666 8.58146 13.4471 8.57202 13.4235L8.5678 13.413L8.56407 13.4023C8.53724 13.3252 8.51908 13.2455 8.50988 13.1646M8.50988 13.1646C8.51341 13.1806 8.51733 13.1966 8.52167 13.2126L9.00427 13.0818L8.50547 13.1165C8.50659 13.1326 8.50806 13.1486 8.50988 13.1646Z" stroke="#9CA3AF"/>
</svg>
