<?xml version="1.0" encoding="UTF-8"?>
<svg version="1.1" xmlns="http://www.w3.org/2000/svg" width="148" height="166">
<path d="M0 0 C4.53629032 1.34408602 4.53629032 1.34408602 6.375 4 C7.36886548 6.98159645 7.49938383 8.93888175 7.50097656 12.05053711 C7.50478333 13.07847885 7.50859009 14.10642059 7.51251221 15.16551208 C7.51353943 16.27491653 7.51456665 17.38432098 7.515625 18.52734375 C7.53394678 20.8691504 7.5535165 23.21094756 7.57421875 25.55273438 C7.60324195 29.25073312 7.6250014 32.94812 7.62548828 36.64624023 C7.6288137 40.21132924 7.66330577 43.77500007 7.703125 47.33984375 C7.6960553 48.44722397 7.6889856 49.55460419 7.68170166 50.69554138 C7.58771286 56.73962547 7.58771286 56.73962547 10.85058594 61.51000977 C11.68364258 62.00170654 12.51669922 62.49340332 13.375 63 C14.4375 66.5 14.4375 66.5 14.375 70 C12.53363826 72.41281883 11.07198174 73.65150913 8.375 75 C8.36041748 75.63502441 8.34583496 76.27004883 8.33081055 76.92431641 C8.25594911 79.82513081 8.15941574 82.72484206 8.0625 85.625 C8.03994141 86.62402344 8.01738281 87.62304688 7.99414062 88.65234375 C7.79550233 94.10586784 7.51633806 98.33065305 4.375 103 C1.48638291 104.44430855 -0.42147701 104.37688506 -3.625 104 C-6.29296875 102.234375 -6.29296875 102.234375 -8.625 99 C-9.26417737 94.9595533 -9.18781343 90.95787272 -9.125 86.875 C-9.09186539 84.70595723 -9.08044169 82.53644252 -9.09375 80.3671875 C-9.07763672 79.40925293 -9.06152344 78.45131836 -9.04492188 77.46435547 C-9.39282614 74.75266598 -9.39282614 74.75266598 -12.09570312 73.28955078 C-12.93037109 72.86399902 -13.76503906 72.43844727 -14.625 72 C-16.04541821 69.15916359 -15.93952272 67.14522722 -15.625 64 C-13.7579009 61.69724444 -12.26852259 60.32176129 -9.625 59 C-9.62357498 58.33458694 -9.62214996 57.66917389 -9.62068176 56.9835968 C-9.60099194 50.05643519 -9.54673291 43.13015559 -9.47241211 36.20336914 C-9.44921827 33.61847258 -9.43483319 31.03348133 -9.42944336 28.44848633 C-9.42016459 24.73198337 -9.37919291 21.01697271 -9.33203125 17.30078125 C-9.3359639 16.14540359 -9.33989655 14.99002594 -9.34394836 13.79963684 C-9.18138926 4.85580239 -9.18138926 4.85580239 -6.30737305 1.73120117 C-3.625 0 -3.625 0 0 0 Z " fill="#9BA1AC" transform="translate(35.625,25)"/>
<path d="M0 0 C2.2331569 2.24847258 2.94841527 3.58362433 3.34057617 6.74902344 C3.32486572 7.77543945 3.30915527 8.80185547 3.29296875 9.859375 C3.28330078 10.97441406 3.27363281 12.08945312 3.26367188 13.23828125 C3.23853516 14.39714844 3.21339844 15.55601563 3.1875 16.75 C3.16719727 18.51150391 3.16719727 18.51150391 3.14648438 20.30859375 C3.1111478 23.20619298 3.06180979 26.10286427 3 29 C3.78632812 29.11988281 4.57265625 29.23976563 5.3828125 29.36328125 C8 30 8 30 9.875 32.1875 C11.27329104 35.6832276 11.16216024 37.43604192 10 41 C8.125 42.875 8.125 42.875 6 44 C5.01 44 4.02 44 3 44 C3.01110306 44.68016174 3.02220612 45.36032349 3.03364563 46.06109619 C3.14417322 53.13353355 3.21964045 60.20572605 3.2746582 67.27880859 C3.29981879 69.91920942 3.33395063 72.5595405 3.37719727 75.19970703 C3.43777663 78.99268797 3.4661953 82.78474898 3.48828125 86.578125 C3.51408768 87.76053772 3.5398941 88.94295044 3.56648254 90.16119385 C3.56927945 98.31399323 3.56927945 98.31399323 0.69604492 101.77636719 C-3.00401078 103.45568252 -5.13764932 103.1444002 -9 102 C-11.97333713 98.96568332 -12.3698452 96.76458161 -12.34057617 92.58886719 C-12.34034958 91.50804871 -12.34012299 90.42723022 -12.33988953 89.31365967 C-12.32440567 88.15312073 -12.30892181 86.99258179 -12.29296875 85.796875 C-12.28872391 84.60394836 -12.28447906 83.41102173 -12.28010559 82.1819458 C-12.26331023 78.37106781 -12.22565518 74.56071822 -12.1875 70.75 C-12.17245433 68.1666743 -12.15876572 65.58334032 -12.14648438 63 C-12.11340381 56.66648632 -12.06319524 50.33328091 -12 44 C-12.62390625 43.85820313 -13.2478125 43.71640625 -13.890625 43.5703125 C-16.54306174 42.8531722 -17.46875135 42.29687297 -19 40 C-19.64615385 33.96923077 -19.64615385 33.96923077 -17.75 31.125 C-15.83867104 29.89628853 -14.1999548 29.49998973 -12 29 C-12.02094727 28.26362305 -12.04189453 27.52724609 -12.06347656 26.76855469 C-12.14667144 23.42917558 -12.19867157 20.09001451 -12.25 16.75 C-12.30027344 15.01169922 -12.30027344 15.01169922 -12.3515625 13.23828125 C-12.36445312 12.12324219 -12.37734375 11.00820313 -12.390625 9.859375 C-12.41157227 8.83295898 -12.43251953 7.80654297 -12.45410156 6.74902344 C-11.8827286 3.29006667 -10.68762541 2.17034186 -8 0 C-5.03475663 -1.48262169 -3.14877613 -0.83538959 0 0 Z " fill="#9BA1AC" transform="translate(76,28)"/>
<path d="M0 0 C1.26767554 2.53535109 1.12458662 4.29867395 1.12597656 7.13647461 C1.13168671 8.74340431 1.13168671 8.74340431 1.13751221 10.38279724 C1.13853943 11.54424759 1.13956665 12.70569794 1.140625 13.90234375 C1.15894699 16.34310834 1.17851673 18.78386382 1.19921875 21.22460938 C1.2282524 25.08731471 1.2500015 28.94943411 1.25048828 32.81225586 C1.25380946 36.53031898 1.28827883 40.2470164 1.328125 43.96484375 C1.3210553 45.12426987 1.3139856 46.28369598 1.30670166 47.47825623 C1.32311707 48.55269485 1.33953247 49.62713348 1.35644531 50.73413086 C1.36009094 51.68074081 1.36373657 52.62735077 1.36749268 53.60264587 C1.79291785 56.25049167 1.79291785 56.25049167 4.47772217 57.76661682 C5.31007385 58.17363327 6.14242554 58.58064972 7 59 C8 60 8 60 8.25 63.875 C8.2020808 67.70169024 8.2020808 67.70169024 6.6875 69.9375 C5 71 5 71 2 72 C1.99383667 73.05127075 1.99383667 73.05127075 1.98754883 74.1237793 C1.95456628 77.31253205 1.88391668 80.49938605 1.8125 83.6875 C1.80669922 84.79029297 1.80089844 85.89308594 1.79492188 87.02929688 C1.54617229 96.17775366 1.54617229 96.17775366 -1.32421875 99.26953125 C-4 101 -4 101 -7.625 101 C-10.96017268 100.01180069 -12.00759876 99.70091802 -14 97 C-14.3371582 94.53564453 -14.3371582 94.53564453 -14.30078125 91.6328125 C-14.30916016 90.58222656 -14.31753906 89.53164062 -14.32617188 88.44921875 C-14.3170891 86.24080583 -14.29633741 84.03240876 -14.26367188 81.82421875 C-14.12563411 76.18073497 -14.12563411 76.18073497 -16.34301758 71.21582031 C-18.14351467 69.71090995 -18.14351467 69.71090995 -21 68 C-22.0625 65.5 -22.0625 65.5 -22 63 C-20.59926704 59.65380459 -19.7353585 58.32158215 -16.3828125 56.85546875 C-15.59648438 56.57316406 -14.81015625 56.29085937 -14 56 C-14.00666183 55.33236633 -14.01332367 54.66473267 -14.02018738 53.97686768 C-14.08650891 47.03410656 -14.13178752 40.09143529 -14.16479492 33.1484375 C-14.17989015 30.55660345 -14.20036824 27.96479497 -14.22631836 25.37304688 C-14.26266827 21.64967541 -14.2797192 17.9266414 -14.29296875 14.203125 C-14.30845261 13.04258606 -14.32393646 11.88204712 -14.33988953 10.68634033 C-14.34022942 9.06511261 -14.34022942 9.06511261 -14.34057617 7.41113281 C-14.34723801 6.46071106 -14.35389984 5.51028931 -14.36076355 4.53106689 C-13.93499286 1.54391898 -13.02842246 0.19741706 -11 -2 C-7.0081062 -4.13851454 -3.73511359 -1.90279371 0 0 Z " fill="#9BA0AC" transform="translate(115,28)"/>
<path d="M0 0 C0.33 0 0.66 0 1 0 C1 8.25 1 16.5 1 25 C2.65 25.33 4.3 25.66 6 26 C8.46401605 28.87468539 9.01200802 30.38759083 8.9375 34.1875 C8 37 8 37 5.9375 38.375 C5.298125 38.58125 4.65875 38.7875 4 39 C4 37 4 37 6 35 C5.525625 34.566875 5.05125 34.13375 4.5625 33.6875 C3 32 3 32 2 29 C2.33 28.67 2.66 28.34 3 28 C2.01 27.34 1.02 26.68 0 26 C-0.34057617 23.38623047 -0.34057617 23.38623047 -0.29296875 20.1171875 C-0.2784668 18.36728516 -0.2784668 18.36728516 -0.26367188 16.58203125 C-0.23853516 15.35871094 -0.21339844 14.13539062 -0.1875 12.875 C-0.17396484 11.64394531 -0.16042969 10.41289063 -0.14648438 9.14453125 C-0.11103543 6.09592157 -0.06162079 3.048175 0 0 Z " fill="#9398A2" transform="translate(78,32)"/>
<path d="M0 0 C0.33 0 0.66 0 1 0 C1.33 17.49 1.66 34.98 2 53 C1.01 53 0.02 53 -1 53 C-1.02512941 48.0236038 -1.04305808 43.04724629 -1.05493164 38.07080078 C-1.0598929 36.38557287 -1.06666403 34.70034909 -1.07543945 33.01513672 C-1.13146212 21.9621949 -0.84818667 11.02355796 0 0 Z " fill="#8F939D" transform="translate(42,32)"/>
<path d="M0 0 C0.66 0 1.32 0 2 0 C1.01 2.97 0.02 5.94 -1 9 C-1.33 9 -1.66 9 -2 9 C-2.25 3.375 -2.25 3.375 0 0 Z " fill="#979BA2" transform="translate(22,86)"/>
</svg>
