<?xml version="1.0" encoding="UTF-8"?>
<svg version="1.1" xmlns="http://www.w3.org/2000/svg" width="165" height="142">
<path d="M0 0 C34.32 0 68.64 0 104 0 C104 22.77 104 45.54 104 69 C69.68 69 35.36 69 0 69 C0 46.23 0 23.46 0 0 Z M24 12 C22.68 14.64 21.36 17.28 20 20 C17.36 20.99 14.72 21.98 12 23 C12 30.26 12 37.52 12 45 C15.96 46.98 15.96 46.98 20 49 C21.32 51.64 22.64 54.28 24 57 C42.48 57 60.96 57 80 57 C81.32 54.36 82.64 51.72 84 49 C86.64 47.68 89.28 46.36 92 45 C92 37.74 92 30.48 92 23 C89.36 22.01 86.72 21.02 84 20 C82.68 17.36 81.36 14.72 80 12 C61.52 12 43.04 12 24 12 Z " fill="#254957" transform="translate(43,19)"/>
<path d="M0 0 C3.96 0 7.92 0 12 0 C12 18.81 12 37.62 12 57 C42.36 57 72.72 57 104 57 C104 60.96 104 64.92 104 69 C69.68 69 35.36 69 0 69 C0 46.23 0 23.46 0 0 Z " fill="#244856" transform="translate(20,42)"/>
<path d="M0 0 C4.70889749 2.51209002 8.00796038 5.4572794 9.6875 10.57421875 C11.297817 17.25855347 10.9411119 21.95721758 7.30859375 27.96484375 C3.2374393 31.92886256 -1.31386896 34.44895087 -7.06640625 34.77734375 C-12.7742936 34.45149979 -17.24872565 31.90368955 -21.44140625 28.15234375 C-24.17975766 23.30756818 -25.49248307 18.37741995 -24.7265625 12.8046875 C-22.92830719 6.43098967 -19.85539108 3.49280389 -14.17578125 0.171875 C-9.76557553 -1.69837891 -4.49977125 -1.57364401 0 0 Z " fill="#244957" transform="translate(102.06640625,36.72265625)"/>
<path d="M0 0 C7.26 0 14.52 0 22 0 C18.97906785 3.02093215 15.43627928 2.46676834 11.375 2.625 C10.17230469 2.68300781 10.17230469 2.68300781 8.9453125 2.7421875 C6.96392444 2.83653931 4.98199355 2.91936215 3 3 C2.67 4.65 2.34 6.3 2 8 C0.23537317 4.91190305 0 3.76687864 0 0 Z " fill="#2A4750" transform="translate(43,19)"/>
<path d="M0 0 C-0.33 0.99 -0.66 1.98 -1 3 C-2.32 3 -3.64 3 -5 3 C-5.18175781 3.63808594 -5.36351563 4.27617188 -5.55078125 4.93359375 C-5.80214844 5.75988281 -6.05351563 6.58617188 -6.3125 7.4375 C-6.55613281 8.26121094 -6.79976563 9.08492187 -7.05078125 9.93359375 C-7.36402344 10.61550781 -7.67726563 11.29742187 -8 12 C-8.99 12.33 -9.98 12.66 -11 13 C-9.79811746 8.42698352 -8.85482305 4.87619363 -5.5 1.4375 C-3 0 -3 0 0 0 Z " fill="#2A444F" transform="translate(133,65)"/>
</svg>
