<svg width="18" height="22" viewBox="0 0 18 22" fill="none" xmlns="http://www.w3.org/2000/svg">
<g clip-path="url(#clip0_323_1966)">
<path d="M15.876 11.0526C15.8732 9.52223 15.3605 8.03658 14.4187 6.83023C13.477 5.62389 12.1599 4.76579 10.6759 4.39176C10.6028 4.37384 10.5267 4.37272 10.4531 4.38834C10.3795 4.40395 10.3104 4.4358 10.2509 4.48184C10.1914 4.52788 10.1431 4.58689 10.1095 4.65421C10.0759 4.72153 10.058 4.79553 10.057 4.87076C10.0569 4.95882 10.0332 5.04538 9.98853 5.12125C9.94382 5.19712 9.87961 5.25967 9.80261 5.3024C9.72561 5.34513 9.6387 5.36637 9.55066 5.36417C9.46262 5.36197 9.37677 5.33623 9.302 5.2897L6.49597 3.53677C6.42488 3.49238 6.3662 3.43063 6.32556 3.35733C6.28492 3.28403 6.26367 3.20164 6.26367 3.11783C6.26367 3.03402 6.28492 2.95163 6.32556 2.87833C6.3662 2.80503 6.42488 2.74304 6.49597 2.69864L9.302 0.94571C9.37677 0.899183 9.46262 0.873449 9.55066 0.871247C9.6387 0.869046 9.72561 0.890526 9.80261 0.933259C9.87961 0.975992 9.94382 1.03854 9.98853 1.11441C10.0332 1.19028 10.0569 1.27659 10.057 1.36466V1.69864C10.0566 1.81497 10.0973 1.92775 10.1722 2.01676C10.2471 2.10576 10.3512 2.1653 10.4659 2.18472C12.2465 2.47667 13.8977 3.29831 15.2043 4.54263C16.5109 5.78695 17.4122 7.39614 17.7906 9.16031C18.1691 10.9245 18.0072 12.7617 17.326 14.4325C16.6449 16.1033 15.476 17.5301 13.9719 18.5268C13.8931 18.5777 13.8012 18.6049 13.7074 18.6049C13.6135 18.6049 13.5218 18.5777 13.443 18.5268L12.382 17.8647C12.3096 17.8189 12.2504 17.7552 12.2102 17.6796C12.17 17.604 12.1503 17.5193 12.1528 17.4337C12.1554 17.3482 12.18 17.2647 12.2246 17.1916C12.2692 17.1185 12.3321 17.0582 12.407 17.0168C13.4591 16.4161 14.334 15.5484 14.9431 14.5011C15.5523 13.4539 15.8741 12.2642 15.876 11.0526Z" fill="#005466"/>
<path d="M4.55702 3.57105L5.61793 4.23414C5.69029 4.27979 5.74948 4.34343 5.78969 4.41895C5.82989 4.49447 5.84983 4.57928 5.8473 4.6648C5.84478 4.75032 5.82 4.83373 5.7754 4.90675C5.73081 4.97976 5.66784 5.03976 5.59291 5.08106C4.4012 5.75972 3.44002 6.77972 2.83314 8.00953C2.22626 9.23934 2.00154 10.6228 2.18788 11.9815C2.37422 13.3401 2.96311 14.6118 3.87867 15.6328C4.79424 16.6538 5.99455 17.3775 7.32496 17.7102C7.39803 17.7281 7.47415 17.7292 7.54774 17.7136C7.62134 17.698 7.69052 17.6659 7.75001 17.6199C7.80951 17.5738 7.85779 17.5151 7.89137 17.4478C7.92495 17.3804 7.94299 17.3064 7.94398 17.2312C7.94374 17.143 7.9671 17.0563 8.01173 16.9802C8.05637 16.9042 8.12065 16.8414 8.19777 16.7986C8.27488 16.7558 8.36205 16.7345 8.45021 16.7368C8.53837 16.7392 8.62428 16.7652 8.69899 16.812L11.4989 18.5652C11.5698 18.6096 11.6282 18.6712 11.6687 18.7444C11.7092 18.8176 11.7305 18.9 11.7305 18.9837C11.7305 19.0673 11.7092 19.1495 11.6687 19.2227C11.6282 19.2959 11.5698 19.3577 11.4989 19.4021L8.69899 21.155C8.62428 21.2019 8.53837 21.2279 8.45021 21.2302C8.36205 21.2326 8.27488 21.2113 8.19777 21.1685C8.12065 21.1257 8.05637 21.0631 8.01173 20.9871C7.9671 20.911 7.94374 20.8243 7.94398 20.7361V20.4011C7.94419 20.285 7.90314 20.1725 7.82826 20.0837C7.75338 19.9949 7.64945 19.9354 7.53492 19.916C5.75432 19.6242 4.103 18.8026 2.79628 17.5584C1.48955 16.3141 0.588082 14.7051 0.209485 12.9409C-0.169111 11.1767 -0.00729984 9.33932 0.673841 7.66847C1.35498 5.99761 2.52387 4.57067 4.02797 3.57398C4.10661 3.52292 4.19824 3.49566 4.29201 3.49513C4.38577 3.49459 4.4778 3.52088 4.55702 3.57105Z" fill="#005466"/>
<path d="M11.5403 14.4717L8.73392 12.9465V7.81154C8.73392 7.59627 8.64251 7.39004 8.47993 7.23781C8.31734 7.08558 8.0969 7 7.86695 7C7.63703 7 7.41641 7.08558 7.25383 7.23781C7.09123 7.39004 7 7.59627 7 7.81154V13.3956C7.00454 13.4255 7.01096 13.4551 7.01945 13.4845C7.02461 13.554 7.03964 13.6227 7.06418 13.6887C7.07257 13.7083 7.08239 13.7254 7.09218 13.7437C7.13186 13.827 7.18687 13.9033 7.2545 13.969C7.30633 14.026 7.3665 14.0758 7.43339 14.1169L10.6734 15.8765C10.772 15.9343 10.8822 15.9729 10.9971 15.99C11.1121 16.0071 11.2295 16.0022 11.3425 15.9759C11.4554 15.9496 11.5615 15.9022 11.6545 15.8366C11.7475 15.771 11.8255 15.6887 11.8838 15.5943C11.942 15.5 11.9793 15.3957 11.9935 15.2875C12.0077 15.1792 11.9986 15.0694 11.9666 14.9647C11.9344 14.8598 11.8802 14.7623 11.8069 14.6776C11.7338 14.5928 11.643 14.5229 11.5403 14.4717Z" fill="#005466"/>
</g>
<defs>
<clipPath id="clip0_323_1966">
<rect width="18" height="22" fill="white"/>
</clipPath>
</defs>
</svg>
