<svg width="22" height="18" viewBox="0 0 22 18" fill="none" xmlns="http://www.w3.org/2000/svg">
<path d="M1.33382 0.17925C0.976321 -0.109031 0.457259 -0.042234 0.175384 0.323391C-0.106491 0.689016 -0.0411788 1.21988 0.316321 1.50816L20.6663 17.8207C21.0238 18.1089 21.5429 18.0421 21.8248 17.6765C22.1066 17.3109 22.0413 16.78 21.6838 16.4918L18.0676 13.5949C19.4288 12.1675 20.3501 10.5679 20.8141 9.43237C20.9276 9.15464 20.9276 8.84527 20.8141 8.56753C20.3019 7.31245 19.226 5.48433 17.6173 3.95855C16.0016 2.4187 13.7776 1.12495 11.0001 1.12495C8.6557 1.12495 6.7032 2.04956 5.18038 3.26245L1.33382 0.17925ZM7.66913 5.25581C8.5457 4.43667 9.71788 3.93745 11.0001 3.93745C13.7329 3.93745 15.9501 6.20503 15.9501 8.99995C15.9501 9.87534 15.7335 10.698 15.3519 11.4152L14.0251 10.3535C14.3138 9.67495 14.3894 8.898 14.1901 8.12808C13.8085 6.66909 12.5469 5.68823 11.1444 5.62847C10.9451 5.62144 10.8282 5.84292 10.8901 6.0398C10.9623 6.2648 11.0035 6.50386 11.0035 6.75347C11.0035 7.11206 10.921 7.44956 10.7766 7.74839L7.67257 5.25933L7.66913 5.25581ZM12.8219 13.7074C12.2582 13.9359 11.6429 14.0625 11.0001 14.0625C8.26726 14.0625 6.05007 11.7949 6.05007 8.99995C6.05007 8.75737 6.06726 8.52183 6.0982 8.2898L2.85663 5.67769C2.07288 6.72183 1.51257 7.76245 1.18601 8.56753C1.07257 8.84527 1.07257 9.15464 1.18601 9.43237C1.6982 10.6875 2.77413 12.5156 4.38288 14.0414C5.99851 15.5812 8.22257 16.875 11.0001 16.875C12.6432 16.875 14.0904 16.4214 15.3382 15.7324L12.8219 13.7074Z" fill="#9CA3AF"/>
</svg>
