<svg version="1.1" id="Layer_1" xmlns="http://www.w3.org/2000/svg" xmlns:xlink="http://www.w3.org/1999/xlink" x="0px" y="0px"
	 width="100%" viewBox="0 0 117 92" enable-background="new 0 0 117 92" xml:space="preserve">
<path fill="#000000" opacity="1.000000" stroke="none" 
	d="
M89.000000,93.000000 
	C59.333332,93.000000 30.166666,93.000000 1.000000,93.000000 
	C1.000000,62.333332 1.000000,31.666666 1.000000,1.000000 
	C40.000000,1.000000 79.000000,1.000000 118.000000,1.000000 
	C118.000000,31.666666 118.000000,62.333332 118.000000,93.000000 
	C108.500000,93.000000 99.000000,93.000000 89.000000,93.000000 
M99.895569,39.319370 
	C98.889259,37.316002 98.291451,34.912540 96.797302,33.386967 
	C92.874916,29.382074 88.500267,25.824856 84.424187,21.964283 
	C81.162292,18.874840 78.238991,15.409205 74.834488,12.497464 
	C73.295128,11.180904 70.259804,9.623476 69.138664,10.281237 
	C67.517082,11.232596 66.698082,14.013551 66.136261,16.170166 
	C65.647369,18.046810 66.290283,20.209826 65.848724,22.110548 
	C65.596252,23.197357 64.266258,24.703543 63.267216,24.833242 
	C58.516277,25.450029 53.535500,26.641457 48.962368,25.818253 
	C37.780258,23.805374 26.661518,34.521057 24.189390,42.789871 
	C20.172220,56.226559 21.460203,69.018349 32.727982,78.936104 
	C34.632473,80.612427 38.831268,82.084503 40.504528,81.116837 
	C43.899738,79.153328 40.305965,76.535728 39.171505,74.562363 
	C34.131622,65.795677 38.306511,54.143063 47.974319,52.390141 
	C53.690357,51.353733 59.747868,52.200638 66.079071,52.200638 
	C66.079071,55.902447 65.892532,59.229439 66.125473,62.526798 
	C66.428314,66.813644 70.404381,68.654572 73.509827,65.725967 
	C82.423965,57.319450 91.076492,48.635513 99.895569,39.319370 
z"/>
<path fill="#055465" opacity="1.000000" stroke="none" 
	d="
M99.863701,39.689987 
	C91.076492,48.635513 82.423965,57.319450 73.509827,65.725967 
	C70.404381,68.654572 66.428314,66.813644 66.125473,62.526798 
	C65.892532,59.229439 66.079071,55.902447 66.079071,52.200638 
	C59.747868,52.200638 53.690357,51.353733 47.974319,52.390141 
	C38.306511,54.143063 34.131622,65.795677 39.171505,74.562363 
	C40.305965,76.535728 43.899738,79.153328 40.504528,81.116837 
	C38.831268,82.084503 34.632473,80.612427 32.727982,78.936104 
	C21.460203,69.018349 20.172220,56.226559 24.189390,42.789871 
	C26.661518,34.521057 37.780258,23.805374 48.962368,25.818253 
	C53.535500,26.641457 58.516277,25.450029 63.267216,24.833242 
	C64.266258,24.703543 65.596252,23.197357 65.848724,22.110548 
	C66.290283,20.209826 65.647369,18.046810 66.136261,16.170166 
	C66.698082,14.013551 67.517082,11.232596 69.138664,10.281237 
	C70.259804,9.623476 73.295128,11.180904 74.834488,12.497464 
	C78.238991,15.409205 81.162292,18.874840 84.424187,21.964283 
	C88.500267,25.824856 92.874916,29.382074 96.797302,33.386967 
	C98.291451,34.912540 98.889259,37.316002 99.863701,39.689987 
z"/>
</svg>