<svg width="24" height="20" viewBox="0 0 24 20" fill="none" xmlns="http://www.w3.org/2000/svg">
<g clip-path="url(#clip0_323_1977)">
<path d="M21.944 9.40503C22.4148 9.3868 22.8592 9.18289 23.18 8.83789C23.5008 8.4929 23.672 8.03506 23.6561 7.56421V7.38111V7.36817L21.819 1.30909C21.7345 1.0303 21.5625 0.786081 21.3283 0.612797C21.0941 0.439513 20.8103 0.346475 20.519 0.347172H3.74699C3.45569 0.346475 3.17196 0.439513 2.93779 0.612797C2.70362 0.786081 2.53144 1.0303 2.44695 1.30909L0.610032 7.36817V7.38111V7.56421C0.594081 8.03506 0.76516 8.4929 1.08598 8.83789C1.40681 9.18289 1.85118 9.3868 2.32195 9.40503C2.66416 9.39851 2.9966 9.28965 3.27641 9.09253C3.55623 8.89542 3.77066 8.61911 3.89201 8.29908C3.92289 8.22025 3.97675 8.1527 4.04668 8.10498C4.11661 8.05727 4.19933 8.03174 4.28398 8.03174C4.36864 8.03174 4.45136 8.05727 4.52129 8.10498C4.59122 8.1527 4.64507 8.22025 4.67595 8.29908C4.79154 8.62294 5.0045 8.9032 5.28557 9.10132C5.56664 9.29944 5.90214 9.40577 6.24602 9.40577C6.5899 9.40577 6.9254 9.29944 7.20647 9.10132C7.48754 8.9032 7.70037 8.62294 7.81596 8.29908C7.84684 8.22025 7.90082 8.1527 7.97075 8.10498C8.04068 8.05727 8.12328 8.03174 8.20793 8.03174C8.29259 8.03174 8.37531 8.05727 8.44524 8.10498C8.51517 8.1527 8.56915 8.22025 8.60002 8.29908C8.71561 8.62294 8.92845 8.9032 9.20952 9.10132C9.49059 9.29944 9.82609 9.40577 10.17 9.40577C10.5138 9.40577 10.8493 9.29944 11.1304 9.10132C11.4115 8.9032 11.6244 8.62294 11.74 8.29908C11.7709 8.22025 11.8248 8.1527 11.8947 8.10498C11.9646 8.05727 12.0473 8.03174 12.132 8.03174C12.2167 8.03174 12.2994 8.05727 12.3693 8.10498C12.4392 8.1527 12.4931 8.22025 12.524 8.29908C12.6396 8.62294 12.8525 8.9032 13.1336 9.10132C13.4147 9.29944 13.7502 9.40577 14.094 9.40577C14.4379 9.40577 14.7733 9.29944 15.0544 9.10132C15.3354 8.9032 15.5484 8.62294 15.664 8.29908C15.6949 8.22025 15.7488 8.1527 15.8188 8.10498C15.8887 8.05727 15.9713 8.03174 16.056 8.03174C16.1406 8.03174 16.2233 8.05727 16.2933 8.10498C16.3632 8.1527 16.4172 8.22025 16.448 8.29908C16.5636 8.62294 16.7765 8.9032 17.0575 9.10132C17.3386 9.29944 17.6741 9.40577 18.018 9.40577C18.3619 9.40577 18.6974 9.29944 18.9784 9.10132C19.2595 8.9032 19.4723 8.62294 19.5879 8.29908C19.6188 8.22025 19.6728 8.1527 19.7427 8.10498C19.8127 8.05727 19.8954 8.03174 19.98 8.03174C20.0647 8.03174 20.1473 8.05727 20.2172 8.10498C20.2871 8.1527 20.3411 8.22025 20.372 8.29908C20.4935 8.61943 20.7081 8.89612 20.9883 9.09327C21.2685 9.29041 21.6015 9.39891 21.944 9.40503Z" fill="#005466"/>
<path d="M21.944 10.4053C21.6972 10.129 21.3949 9.90815 21.0568 9.75684C20.7187 9.60552 20.3523 9.52734 19.9819 9.52734C19.6115 9.52734 19.2453 9.60552 18.9072 9.75684C18.5691 9.90815 18.2667 10.129 18.0199 10.4053C17.7731 10.129 17.4708 9.90815 17.1327 9.75684C16.7946 9.60552 16.4284 9.52734 16.058 9.52734C15.6876 9.52734 15.3212 9.60552 14.9831 9.75684C14.645 9.90815 14.3427 10.129 14.0959 10.4053C13.8491 10.129 13.5468 9.90815 13.2087 9.75684C12.8706 9.60552 12.5043 9.52734 12.1339 9.52734C11.7635 9.52734 11.3973 9.60552 11.0592 9.75684C10.7211 9.90815 10.4188 10.129 10.172 10.4053C9.9252 10.129 9.62276 9.90815 9.28466 9.75684C8.94656 9.60552 8.58037 9.52734 8.20995 9.52734C7.83953 9.52734 7.47323 9.60552 7.13512 9.75684C6.79702 9.90815 6.49471 10.129 6.24792 10.4053C6.00112 10.129 5.69881 9.90815 5.36071 9.75684C5.02261 9.60552 4.6563 9.52734 4.28588 9.52734C3.91546 9.52734 3.54928 9.60552 3.21117 9.75684C2.87307 9.90815 2.57076 10.129 2.32397 10.4053C2.17219 10.4025 2.02092 10.3866 1.87194 10.3574V19.3684C1.85934 19.5148 1.90467 19.6601 1.99816 19.7734C2.09165 19.8867 2.22585 19.9589 2.37194 19.9744H5.65795C5.80404 19.9589 5.93824 19.8867 6.03173 19.7734C6.12522 19.6601 6.17055 19.5148 6.15795 19.3684V14.5234H9.32189V19.3684C9.30929 19.5148 9.35462 19.6601 9.44811 19.7734C9.5416 19.8867 9.6758 19.9589 9.82189 19.9744H21.8879C22.034 19.9589 22.1682 19.8867 22.2617 19.7734C22.3552 19.6601 22.4005 19.5148 22.3879 19.3684V10.3574C22.2416 10.3861 22.0931 10.402 21.944 10.4053ZM16.0929 18.0125H13.0929V15.2205H16.0929V18.0125ZM16.0929 14.7783H13.0929V11.9863H16.0929V14.7783ZM19.533 18.0125H16.533V15.2205H19.533V18.0125ZM19.533 14.7783H16.533V11.9863H19.533V14.7783Z" fill="#005466"/>
</g>
<defs>
<clipPath id="clip0_323_1977">
<rect width="24" height="20" fill="white"/>
</clipPath>
</defs>
</svg>
