<svg width="16" height="16" viewBox="0 0 16 16" fill="none" xmlns="http://www.w3.org/2000/svg">
<path d="M8 8C9.21242 8 10.3752 7.57857 11.2325 6.82843C12.0898 6.07828 12.5714 5.06087 12.5714 4C12.5714 2.93913 12.0898 1.92172 11.2325 1.17157C10.3752 0.421427 9.21242 0 8 0C6.78758 0 5.62482 0.421427 4.76751 1.17157C3.9102 1.92172 3.42857 2.93913 3.42857 4C3.42857 5.06087 3.9102 6.07828 4.76751 6.82843C5.62482 7.57857 6.78758 8 8 8ZM6.36786 9.5C2.85 9.5 0 11.9937 0 15.0719C0 15.5844 0.475 16 1.06071 16H14.9393C15.525 16 16 15.5844 16 15.0719C16 11.9937 13.15 9.5 9.63214 9.5H6.36786Z" fill="#9CA3AF"/>
</svg>
