<svg width="60" height="49" viewBox="0 0 60 49" fill="none" xmlns="http://www.w3.org/2000/svg">
<path d="M6.14579 38.2527C6.10265 38.1452 6.03052 38.0521 5.93754 37.9838C5.84454 37.9154 5.73443 37.8747 5.61965 37.8662C5.50489 37.8577 5.39005 37.8817 5.28814 37.9356C5.18624 37.9895 5.10135 38.071 5.04308 38.171L4.02146 39.9513L0.859292 45.472C0.805144 45.5664 0.776669 45.6736 0.776734 45.7827C0.776798 45.8918 0.805404 45.9989 0.859663 46.0933C0.913923 46.1877 0.991923 46.266 1.0858 46.3204C1.17969 46.3747 1.28614 46.4032 1.39443 46.403H10.8809C11.0069 46.4066 11.1308 46.37 11.2351 46.2986C11.3393 46.2274 11.4186 46.1247 11.4617 46.0054C11.5047 45.8861 11.5094 45.7562 11.475 45.634C11.4406 45.5119 11.3689 45.4037 11.2701 45.325C9.06096 43.3808 7.31032 40.9647 6.14579 38.2527Z" fill="#F3F3F3"/>
<path d="M31.8975 28.4035C30.6164 28.1748 28.8326 27.8155 28.8326 27.7828C28.3742 26.2578 28.1446 24.6723 28.1516 23.0788C28.1389 20.5847 28.6937 18.1207 29.7732 15.8759C29.8066 15.7527 29.85 15.6326 29.9029 15.5166C30.6002 13.8832 30.6326 12.8542 29.7083 11.8252C29.1364 11.2956 28.443 10.917 27.6904 10.7232C26.9376 10.5294 26.1489 10.5264 25.3948 10.7146H26.011C23.1377 10.7731 20.3169 11.5009 17.7695 12.8409C15.2221 14.1809 13.0174 16.0967 11.3279 18.4384C9.63838 20.7799 8.51009 23.4837 8.03136 26.3378C7.55262 29.1921 7.73645 32.1192 8.56845 34.8898C9.40046 37.6604 10.858 40.1994 12.827 42.3081C14.796 44.4165 17.2228 46.0373 19.9176 47.0433C22.6123 48.0492 25.5017 48.4131 28.3595 48.1066C31.2171 47.8 33.9656 46.8311 36.3894 45.2758C38.8239 43.8282 40.8547 41.7826 42.2921 39.3305C46.8326 31.4742 35.157 28.9588 31.8975 28.4035ZM35.7894 41.2088C35.7093 41.469 35.5505 41.6974 35.3353 41.8622C33.127 43.4614 30.5105 44.3909 27.7948 44.5408C26.2796 44.7824 24.728 44.486 23.4057 43.7024C22.0833 42.9188 21.0725 41.6967 20.5462 40.2452C19.104 37.1944 18.705 33.7486 19.411 30.4452L20.7083 30.5595C22.6056 30.7228 24.3894 30.8862 26.1732 31.0985C28.0797 35.5154 31.49 39.1009 35.7894 41.2088ZM13.3948 23.0788C13.5083 21.3312 14.6921 20.8412 15.1786 20.8412C15.5484 20.8681 15.9014 21.0076 16.1909 21.2408C16.4804 21.4741 16.6929 21.7905 16.8002 22.1478C17.3068 23.5901 17.3465 25.1569 16.9137 26.6232C15.8921 26.3455 13.2002 25.8228 13.3948 23.0788ZM11.611 27.7665C12.2215 28.1588 12.8551 28.5134 13.5083 28.8282C14.325 29.1704 15.1585 29.4702 16.0056 29.7265C15.2619 33.5728 15.6799 37.5552 17.2056 41.1598C15.7608 39.9814 14.5409 38.548 13.6056 36.9295C11.9456 34.1844 11.2436 30.9595 11.611 27.7665ZM26.5948 14.0139C25.2041 16.8068 24.4822 19.8891 24.4867 23.0135C24.4909 24.5697 24.6704 26.1204 25.0218 27.6358L20.157 27.1622C20.8056 22.2622 20.2867 19.4038 16.6218 17.7215C19.0218 14.9612 25.7516 13.0666 26.5948 14.0792V14.0139ZM39.7948 36.2272C39.7384 36.7766 39.4776 37.2843 39.0651 37.6482C38.5948 38.0565 37.8002 37.9912 36.8759 37.6482C34.1911 36.2378 31.9462 34.1066 30.3894 31.4905C33.1397 31.8572 35.7938 32.7557 38.2056 34.1365C39.7948 35.0838 39.9083 35.7698 39.8435 36.2598L39.7948 36.2272Z" fill="#F3F3F3"/>
<path d="M35.2215 25.7412C37.0396 25.7412 38.5133 24.2568 38.5133 22.4255C38.5133 20.5944 37.0396 19.11 35.2215 19.11C33.4035 19.11 31.9296 20.5944 31.9296 22.4255C31.9296 24.2568 33.4035 25.7412 35.2215 25.7412Z" fill="#F3F3F3"/>
<path d="M56.3998 28.7467C56.1521 28.7486 55.9057 28.7101 55.6701 28.6323C55.1478 28.4337 54.7231 28.0373 54.4868 27.5277C54.2505 27.0181 54.2212 26.4357 54.4052 25.9047C55.1235 23.9285 55.4473 21.8289 55.3581 19.7263C55.2689 17.6237 54.7686 15.5595 53.8858 13.6521C53.003 11.7447 51.755 10.0316 50.2135 8.61104C48.672 7.19043 46.8671 6.0903 44.9025 5.37372C44.4023 5.16313 44.0016 4.76641 43.7841 4.26603C43.5666 3.76564 43.549 3.2001 43.7348 2.68694C43.9206 2.17376 44.2957 1.75247 44.7821 1.51063C45.2682 1.26879 45.8283 1.22503 46.3458 1.38841C48.8311 2.29477 51.1143 3.68613 53.0648 5.48278C55.0153 7.27943 56.5948 9.44606 57.7124 11.8585C58.8302 14.271 59.4644 16.882 59.5785 19.5417C59.6929 22.2014 59.285 24.8577 58.3782 27.3583C58.231 27.7672 57.9619 28.12 57.6076 28.3686C57.2535 28.6171 56.8315 28.7493 56.3998 28.7467Z" fill="#F3F3F3"/>
<path d="M49.7512 28.3385C49.5026 28.3349 49.2561 28.2908 49.0214 28.2078C48.7617 28.1113 48.5231 27.9643 48.3198 27.775C48.1164 27.5857 47.952 27.3578 47.836 27.1045C47.7201 26.8512 47.6549 26.5774 47.644 26.2988C47.6332 26.02 47.677 25.7418 47.7728 25.4802C48.2886 24.0639 48.521 22.5588 48.4566 21.0515C48.3923 19.5445 48.0324 18.065 47.3977 16.6985C46.7632 15.3321 45.8664 14.1057 44.759 13.0899C43.6516 12.0742 42.3558 11.2892 40.9458 10.7802C40.685 10.6847 40.4453 10.5384 40.2405 10.3497C40.0359 10.161 39.87 9.93347 39.7526 9.68019C39.635 9.42689 39.5682 9.15278 39.556 8.8735C39.5437 8.59423 39.5862 8.31523 39.6809 8.05247C39.7758 7.78972 39.9209 7.54836 40.1084 7.34214C40.2957 7.13591 40.5216 6.96889 40.7731 6.85059C41.0246 6.73228 41.2967 6.66502 41.574 6.65264C41.8511 6.64028 42.1283 6.68304 42.389 6.77849C44.3174 7.48244 46.0892 8.56258 47.6027 9.95702C49.1163 11.3515 50.3419 13.0329 51.2095 14.905C52.0771 16.7771 52.5696 18.8031 52.6587 20.8673C52.7481 22.9313 52.4324 24.9928 51.7296 26.9338C51.583 27.3443 51.3144 27.6994 50.9606 27.9506C50.6066 28.2019 50.1843 28.3373 49.7512 28.3385Z" fill="#F3F3F3"/>
<path d="M43.1027 27.9298C42.8539 27.9262 42.6076 27.8821 42.373 27.7992C42.113 27.7028 41.8746 27.5556 41.6713 27.3663C41.4679 27.177 41.3035 26.9492 41.1876 26.6958C41.0716 26.4427 41.0063 26.1688 40.9954 25.8901C40.9845 25.6113 41.0283 25.3332 41.1243 25.0715C41.741 23.3384 41.6525 21.43 40.8778 19.7625C40.1032 18.0949 38.7053 16.8034 36.9892 16.1698C36.4623 15.9771 36.0331 15.5814 35.7958 15.0699C35.5586 14.5583 35.533 13.9728 35.7243 13.4422C35.9157 12.9115 36.3086 12.4792 36.8163 12.2402C37.3242 12.0013 37.9056 11.9754 38.4324 12.1682C41.2038 13.1846 43.4611 15.268 44.7078 17.9603C45.9546 20.6525 46.0889 23.7333 45.0811 26.5252C44.9345 26.9356 44.6659 27.2907 44.3119 27.5421C43.9579 27.7933 43.5358 27.9287 43.1027 27.9298Z" fill="#F3F3F3"/>
</svg>
