<svg width="117" height="160" viewBox="0 0 117 160" fill="none" xmlns="http://www.w3.org/2000/svg">
<path d="M110.102 95.358C107.993 93.2233 105.464 91.5336 102.669 90.3918C99.8738 89.25 96.8714 88.6801 93.845 88.7169H71.459L52.0816 118.865L49.7082 114.361C51.5327 113.312 53.091 111.87 54.2656 110.141C55.6706 108.072 56.4794 105.667 56.6061 103.182C56.7329 100.697 56.1728 98.2245 54.9854 96.0273C53.7982 93.83 52.0279 91.9901 49.8626 90.703C47.6974 89.4159 45.2182 88.7295 42.6882 88.7169H0.07794V98.2511H9.12594V133.944H18.8536V98.2511H25.3053V133.944H35.0442V116.213H39.791L46.1202 128.202L42.3873 133.944H60.0265L57.2519 128.673L60.1713 124.125H72.2056V133.988H93.845C98.3879 133.985 102.828 132.658 106.604 130.174C110.381 127.692 113.325 124.164 115.064 120.036C116.804 115.909 117.261 111.368 116.377 106.985C115.495 102.603 113.311 98.5758 110.102 95.4127V95.358ZM72.2167 105.407V114.58H66.311L72.2167 105.407ZM35.0442 98.2511H42.7327C43.2942 98.2409 43.8516 98.3456 44.3696 98.5589C44.8876 98.772 45.3548 99.089 45.7413 99.4895C46.1462 99.8801 46.4657 100.348 46.6803 100.864C46.8948 101.381 47 101.935 46.9893 102.492C46.9893 103.603 46.5409 104.667 45.7427 105.452C44.9444 106.237 43.8617 106.678 42.7327 106.678H35.0442V98.2511ZM93.8896 124.432H90.7027V98.2293H93.8896C97.2231 98.514 100.327 100.018 102.588 102.443C104.85 104.868 106.104 108.04 106.104 111.33C106.104 114.621 104.85 117.793 102.588 120.218C100.327 122.643 97.2231 124.147 93.8896 124.432Z" fill="#F3F3F3"/>
<path d="M19.9679 64.158C19.8831 63.9803 19.7512 63.8282 19.586 63.7177C19.4209 63.6072 19.2286 63.5425 19.0292 63.5301C18.8299 63.5178 18.6309 63.5584 18.4529 63.6476C18.2751 63.7369 18.1248 63.8716 18.0179 64.0375L16.2127 67.095L10.6414 76.6512C10.5497 76.8159 10.5025 77.001 10.5044 77.1887C10.5064 77.3764 10.5573 77.5606 10.6524 77.7234C10.7475 77.8863 10.8835 78.0223 11.0474 78.1186C11.2114 78.2148 11.3977 78.2681 11.5885 78.2731H28.3585C28.5765 78.2639 28.7869 78.1919 28.9636 78.0662C29.1405 77.9404 29.2759 77.7664 29.353 77.5656C29.4301 77.3649 29.4456 77.1463 29.3975 76.937C29.3495 76.7277 29.2401 76.5369 29.0827 76.3882C25.1481 73.0374 22.0326 68.857 19.9679 64.158Z" fill="#F3F3F3"/>
<path d="M65.6982 47.0949C63.4696 46.7113 60.2605 46.0648 60.2382 45.999C58.1678 39.1502 58.7841 31.787 61.9653 25.3634C62.0433 25.1552 62.1213 24.947 62.2105 24.7497C63.4362 21.9333 63.4919 20.136 61.865 18.3497C60.2382 16.5634 57.8647 16.0593 54.2099 16.4429C54.5887 16.4429 54.9565 16.3771 55.3242 16.3552C50.2282 16.4618 45.2264 17.7266 40.7101 20.0506C36.1938 22.3747 32.2855 25.695 29.2911 29.7517C26.2966 33.8083 24.297 38.4914 23.4489 43.4345C22.6008 48.3775 22.9272 53.4467 24.4024 58.245C25.8776 63.0435 28.4616 67.4412 31.9525 71.094C35.4433 74.747 39.7461 77.5559 44.5243 79.3013C49.3026 81.0465 54.4266 81.6809 59.4956 81.1545C64.5645 80.6283 69.441 78.9556 73.7433 76.2675C78.0624 73.7529 81.6654 70.2056 84.2176 65.9552C92.207 52.4209 71.459 48.0483 65.6982 47.0949ZM72.5956 69.2867C72.4534 69.7295 72.1677 70.1144 71.7822 70.3826C67.8756 73.1703 63.2309 74.7843 58.4107 75.0292C52.0927 75.5004 48.2485 73.21 45.5407 67.61C42.9953 62.3528 42.29 56.4149 43.535 50.7223L45.8305 50.9196C49.1733 51.2045 52.3713 51.4785 55.5247 51.8511C58.9307 59.4712 64.9816 65.6515 72.5956 69.2867ZM32.8156 37.8785C33.0273 34.8428 35.1333 33.9771 35.9802 33.9771C36.6194 34.046 37.2239 34.2991 37.7176 34.7047C38.2111 35.1101 38.572 35.65 38.7547 36.2565C39.6537 38.7575 39.7202 41.475 38.9442 44.0155C37.2727 43.5223 32.5147 42.6127 32.8156 37.8785ZM29.651 46.0976C30.7241 46.7843 31.8406 47.4029 32.9939 47.9497C34.3422 48.5634 37.3173 49.462 37.451 49.4949C36.2476 57.3196 36.9273 63.8072 39.5793 69.3963C37.0172 67.3515 34.8571 64.863 33.2056 62.0538C30.2475 57.273 29.0039 51.6551 29.6733 46.0976H29.651ZM56.2602 22.2511C53.7907 27.0941 52.5085 32.4386 52.5162 37.8566C52.5176 40.5574 52.8354 43.2491 53.4633 45.8785L44.8833 45.0456C45.9976 36.5963 45.1173 31.599 38.621 28.7059C42.8442 23.7963 54.7782 20.5305 56.2825 22.2511H56.2602ZM64.5505 80.0045C64.0156 80.136 63.4362 80.2565 62.9347 80.3552C63.503 80.2456 64.0156 80.136 64.5727 80.0045H64.5505ZM79.7716 60.7168C79.6556 61.6622 79.2014 62.5363 78.4902 63.1826C77.6433 63.8949 76.2616 63.7634 74.5902 63.1059C69.8359 60.6592 65.8604 56.9693 63.1019 52.4428C67.9887 53.082 72.7057 54.637 76.997 57.0237C79.7047 58.6894 79.9165 59.873 79.7939 60.7168H79.7716Z" fill="#F3F3F3"/>
<path d="M71.5929 42.4594C74.8115 42.4594 77.4206 39.8933 77.4206 36.7279C77.4206 33.5624 74.8115 30.9964 71.5929 30.9964C68.3744 30.9964 65.7651 33.5624 65.7651 36.7279C65.7651 39.8933 68.3744 42.4594 71.5929 42.4594Z" fill="#F3F3F3"/>
<path d="M109.167 47.6976C108.73 47.6996 108.296 47.6254 107.885 47.4786C106.953 47.1428 106.194 46.4566 105.776 45.5707C105.358 44.685 105.315 43.6722 105.657 42.7553C108.212 35.8376 107.87 28.2054 104.707 21.5352C101.544 14.8652 95.8173 9.7029 88.7863 7.18264C88.3087 7.02933 87.8673 6.78304 87.4885 6.45846C87.1097 6.13388 86.8013 5.73767 86.5815 5.29337C86.3616 4.84909 86.2349 4.36582 86.2089 3.87237C86.183 3.37894 86.2583 2.8854 86.4304 2.42117C86.6024 1.95695 86.8677 1.53154 87.2105 1.17026C87.5531 0.80898 87.9663 0.519243 88.4253 0.31829C88.8842 0.117337 89.3796 0.00928629 89.882 0.000572673C90.3843 -0.00814094 90.8833 0.0826622 91.3491 0.267573C95.7589 1.83968 99.81 4.25202 103.27 7.36643C106.731 10.4808 109.532 14.2361 111.514 18.4171C113.497 22.598 114.621 27.1226 114.822 31.7315C115.023 36.3404 114.298 40.943 112.688 45.2758C112.426 45.9871 111.947 46.6014 111.317 47.035C110.687 47.4685 109.936 47.6999 109.167 47.6976Z" fill="#F3F3F3"/>
<path d="M97.3664 46.9852C96.766 46.9815 96.1752 46.8363 95.6437 46.5616C95.1122 46.287 94.6553 45.891 94.3116 45.4069C93.9678 44.9227 93.747 44.3646 93.6679 43.7793C93.5886 43.194 93.6533 42.5985 93.8564 42.0428C95.6839 37.0839 95.4376 31.6147 93.1712 26.8343C90.9049 22.0538 86.8034 18.3523 81.7664 16.5414C80.8325 16.2087 80.0713 15.5246 79.6503 14.6399C79.2292 13.7551 79.1827 12.742 79.5211 11.8236C79.8595 10.9052 80.5549 10.1565 81.4546 9.74241C82.3542 9.32829 83.3842 9.2826 84.3181 9.61539C87.739 10.8389 90.8813 12.7132 93.5653 15.1313C96.2495 17.5493 98.4231 20.4637 99.9618 23.7081C101.5 26.9524 102.374 30.4631 102.533 34.0397C102.692 37.6161 102.133 41.1884 100.888 44.5523C100.626 45.2648 100.148 45.8807 99.5179 46.3161C98.8877 46.7515 98.1365 46.9851 97.3664 46.9852Z" fill="#F3F3F3"/>
<path d="M85.5659 46.2731C84.9654 46.2694 84.3747 46.1242 83.8432 45.8495C83.3117 45.5749 82.8548 45.179 82.5111 44.6948C82.1672 44.2106 81.9465 43.6526 81.8672 43.0672C81.7881 42.4819 81.8528 41.8864 82.0559 41.3306C83.1615 38.3295 83.0116 35.0196 81.6391 32.127C80.2668 29.2344 77.7838 26.9952 74.735 25.9006C74.2575 25.7473 73.8161 25.5009 73.4372 25.1764C73.0585 24.8518 72.75 24.4556 72.5302 24.0113C72.3104 23.567 72.1837 23.0837 72.1577 22.5904C72.1317 22.0969 72.2071 21.6033 72.3791 21.1391C72.5511 20.6748 72.8165 20.2494 73.1592 19.8882C73.5019 19.5269 73.915 19.2372 74.374 19.0362C74.833 18.8352 75.3284 18.7272 75.8307 18.7185C76.333 18.7097 76.832 18.8005 77.2979 18.9855C79.7323 19.8565 81.9684 21.1908 83.8784 22.9119C85.7885 24.6331 87.3352 26.7074 88.4299 29.0165C89.5246 31.3256 90.1462 33.8242 90.2589 36.3696C90.3717 38.915 89.9734 41.4572 89.087 43.8513C88.8225 44.5608 88.3431 45.1734 87.7135 45.6065C87.0838 46.0396 86.3342 46.2722 85.5659 46.2731Z" fill="#F3F3F3"/>
<path d="M13.9286 144.508V158.843H12.6026V147.698L7.69971 158.843H6.23999L1.33714 147.698V158.843H0V144.508H1.40399L6.97542 157.188L12.5469 144.508H13.9286Z" fill="white"/>
<path d="M26.9434 144.508V145.824H20.8483V150.996H25.662V152.322H20.8483V157.528H26.9434V158.843H19.5V144.508H26.9434Z" fill="white"/>
<path d="M41.73 158.843H40.2369L36.8159 152.366H33.317V158.843H31.98V144.508H37.2729C38.3309 144.514 39.3439 144.931 40.091 145.668C40.8381 146.404 41.259 147.403 41.262 148.443C41.271 149.322 40.972 150.178 40.4151 150.865C39.8912 151.543 39.1486 152.026 38.309 152.235L41.73 158.843ZM37.2729 151.051C37.6362 151.074 38.0007 151.024 38.3436 150.903C38.6864 150.782 39.0004 150.593 39.2662 150.348C39.532 150.103 39.7438 149.807 39.8886 149.478C40.0334 149.15 40.1082 148.796 40.1082 148.437C40.1082 148.079 40.0334 147.725 39.8886 147.396C39.7438 147.067 39.532 146.772 39.2662 146.526C39.0004 146.282 38.6864 146.093 38.3436 145.972C38.0007 145.851 37.6362 145.801 37.2729 145.824H33.3729V151.051H37.2729Z" fill="white"/>
<path d="M53.3073 157.67C54.4941 157.681 55.6576 157.346 56.6502 156.706V158.218C55.6147 158.734 54.4681 158.997 53.3073 158.985C51.3361 158.985 49.4458 158.215 48.0519 156.845C46.6582 155.474 45.875 153.614 45.875 151.676C45.875 149.737 46.6582 147.878 48.0519 146.507C49.4458 145.136 51.3361 144.366 53.3073 144.366C54.4675 144.359 55.6128 144.622 56.6502 145.133V146.656C55.8589 146.137 54.9548 145.807 54.0103 145.693C53.0657 145.579 52.1073 145.684 51.2119 146.001C50.3165 146.318 49.5091 146.837 48.8545 147.517C48.2 148.195 47.7166 149.016 47.4432 149.912C47.1697 150.809 47.1139 151.756 47.2801 152.677C47.4464 153.599 47.83 154.469 48.4004 155.219C48.9707 155.967 49.7117 156.574 50.5639 156.991C51.4162 157.407 52.3558 157.621 53.3073 157.615V157.67Z" fill="white"/>
<path d="M71.5706 144.508V158.843H70.2334V152.267H62.9014V158.843H61.5531V144.508H62.9014V150.996H70.2891V144.508H71.5706Z" fill="white"/>
<path d="M87.2039 144.508V158.843H85.8667V155.259H80.0836L77.777 158.843H76.1947L85.4099 144.508H87.2039ZM80.9193 153.944H85.8667V146.273L80.9193 153.944Z" fill="white"/>
<path d="M102.893 144.508V158.843H101.456L94.1794 146.898V158.843H92.8422V144.508H94.2908L101.556 156.465V144.508H102.893Z" fill="white"/>
<path d="M116.811 144.508V145.824H113.044V158.843H111.696V145.824H107.874V144.508H116.811Z" fill="white"/>
</svg>
