<svg width="22" height="24" viewBox="0 0 22 24" fill="none" xmlns="http://www.w3.org/2000/svg">
<path d="M11.0001 0C10.1309 0 9.42867 0.670312 9.42867 1.5V2.4C5.84385 3.09375 3.14295 6.12187 3.14295 9.75V10.6313C3.14295 12.8344 2.2934 14.9625 0.761258 16.6125L0.397865 17.0016C-0.0146345 17.4422 -0.112849 18.075 0.137598 18.6141C0.388044 19.1531 0.952776 19.5 1.57153 19.5H20.4287C21.0474 19.5 21.6072 19.1531 21.8626 18.6141C22.118 18.075 22.0148 17.4422 21.6023 17.0016L21.2389 16.6125C19.7068 14.9625 18.8572 12.8391 18.8572 10.6313V9.75C18.8572 6.12187 16.1563 3.09375 12.5715 2.4V1.5C12.5715 0.670312 11.8693 0 11.0001 0ZM13.2247 23.1234C13.8139 22.5609 14.143 21.7969 14.143 21H11.0001H7.85724C7.85724 21.7969 8.18626 22.5609 8.77554 23.1234C9.36483 23.6859 10.1653 24 11.0001 24C11.8349 24 12.6354 23.6859 13.2247 23.1234Z" fill="#9CA3AF"/>
</svg>
