<svg width="22" height="16" viewBox="0 0 22 16" fill="none" xmlns="http://www.w3.org/2000/svg">
<path d="M11.0001 0.125C7.91403 0.125 5.44285 1.41875 3.64389 2.95859C1.85639 4.48438 0.660908 6.3125 0.0956299 7.56758C-0.0304118 7.84531 -0.0304118 8.15469 0.0956299 8.43242C0.660908 9.6875 1.85639 11.5156 3.64389 13.0414C5.44285 14.5813 7.91403 15.875 11.0001 15.875C14.0863 15.875 16.5574 14.5813 18.3564 13.0414C20.1439 11.5121 21.3394 9.6875 21.9085 8.43242C22.0345 8.15469 22.0345 7.84531 21.9085 7.56758C21.3394 6.3125 20.1439 4.48438 18.3564 2.95859C16.5574 1.41875 14.0863 0.125 11.0001 0.125ZM5.50014 8C5.50014 6.65734 6.07961 5.36967 7.11106 4.42027C8.14251 3.47087 9.54145 2.9375 11.0001 2.9375C12.4588 2.9375 13.8578 3.47087 14.8892 4.42027C15.9207 5.36967 16.5001 6.65734 16.5001 8C16.5001 9.34266 15.9207 10.6303 14.8892 11.5797C13.8578 12.5291 12.4588 13.0625 11.0001 13.0625C9.54145 13.0625 8.14251 12.5291 7.11106 11.5797C6.07961 10.6303 5.50014 9.34266 5.50014 8ZM11.0001 5.75C11.0001 6.99102 9.90396 8 8.5557 8C8.28452 8 8.0248 7.95781 7.78035 7.88398C7.57028 7.8207 7.32584 7.94023 7.33348 8.14414C7.34494 8.38672 7.38313 8.6293 7.4557 8.87187C7.97896 10.6719 9.99181 11.7406 11.9474 11.259C13.9029 10.7773 15.064 8.92461 14.5408 7.12461C14.1168 5.66563 12.7151 4.68477 11.1567 4.625C10.9352 4.61797 10.8054 4.83945 10.8741 5.03633C10.9543 5.26133 11.0001 5.50039 11.0001 5.75Z" fill="#9CA3AF"/>
</svg>
