<?xml version="1.0" encoding="UTF-8"?>
<svg version="1.1" viewBox="0 0 2048 1365" width="1280" height="1280" xmlns="http://www.w3.org/2000/svg">
<path transform="translate(513,96)" d="m0 0h78l134 1h553l200-1h167l43 1 24 2 25 5 19 7 16 8 18 10 17 12 12 11 11 11 10 13 10 15 11 21 8 24 4 19 2 22v208l-2 9-8 15-8 9-13 8-12 6-16 7-17 9-13 10-10 9-12 12-12 17-9 17-6 18-3 14-2 15v19l4 24 5 19 8 16 7 11 11 14 13 13 17 12 27 14 16 8 14 9 10 10 9 15 2 8v207l-2 26-6 23-5 15-8 16-7 12-12 17-9 11-15 15-14 11-21 13-17 8-24 8-14 3-29 3-19 1h-1334l-31-2-19-3-24-8-25-12-16-11-13-11-8-7-7-7-9-11-11-16-9-16-8-17-7-21-4-19-1-9-1-21v-167l1-33 2-9 10-14 8-8 15-9 17-8 19-10 16-10 14-12 12-13 9-14 8-16 5-11 5-19 2-13v-27l-3-19-5-18-11-23-12-18-11-12-10-9-18-12-19-10-21-9-9-7-10-9-12-13-1-5-1-18v-177l1-37 2-14 8-24 5-13 11-19 10-14 11-12 7-8 14-15 7-7 15-11 15-8 20-8 21-6 17-3 31-2zm667 268-8 4-8 8-4 9-1 6v8l3 7 8 7 16 8 22 12 12 8 14 10 14 12 12 12 12 16 13 21 9 19 10 28 5 26 2 21v16l-3 23-5 25-6 25 1 8 4 7 7 7 8 4 4 1h7l11-4 7-6 5-8 7-21 6-29 2-22v-43l-3-24-4-19-10-30-9-20-11-21-15-22-11-14-11-12-9-9-14-11-19-14-21-12-15-8-15-6-11-3zm-55 71-6 4-7 7-5 10-1 10 3 7 6 8 14 8 19 10 13 9 13 11 7 6 11 14 11 18 9 19 4 14 4 18 1 19v10l-2 15-6 25-2 8v9l5 10 5 6 8 5 5 1h14l6-3 7-8 5-10 6-21 3-16 2-20v-21l-3-24-5-23-7-20-8-18-8-15-8-12-8-10-9-10-12-12-13-10-17-11-16-9-15-6-8-2zm-197 51-28 3-24 5-23 7-15 6-16 8-15 9-16 12-13 11-10 10-8 7-7 8-9 11-10 15-9 15-8 16-10 26-6 21-3 16-3 27v31l4 26 6 25 5 15 9 22 12 22 11 16 9 11 9 10 18 18 14 11 17 11 13 8 16 8 23 10 23 6 31 5 10 1h19l21-2 22-4 22-6 16-6 18-8 19-10 21-14 13-10 10-9 5-4 7-8 12-15 10-15 8-14 6-19 2-9v-11l-3-12-5-13-7-11-14-14-14-9-19-10-23-9-21-7-17-4-28-6-24-3-9-3-4-4-5-16-3-19-1-29 2-22 6-31 6-17 11-26 4-13 1-5v-11l-4-10-6-7-10-7-11-5-10-2zm149 18-9 3-8 7-4 8-1 5v8l4 11 4 5 10 6 21 12 10 8 7 7 9 13 7 16 4 14 1 12-1 17-3 14-2 10 1 13 4 8 7 6 6 3 11 2 13-5 8-7 5-8 4-18 2-14 1-26-2-19-5-20-7-17-8-14-10-14-11-12-13-12-13-9-16-8-10-4-4-1zm-27 92-16 3-10 6-8 9-5 10-3 11v12l3 10 7 11 11 9 9 4 5 1h18l11-4 10-9 7-11 3-8 1-6v-11l-3-13-5-8-8-8-10-5-7-2zm-384 243-6 4-8 14-10 17-16 29-9 16-10 18-4 9v4l39 1h89l8-2 3-2-2-6-8-10-8-8-9-11-14-19-16-25-12-22-6-7z" fill="#045463"/>
<path transform="translate(846,746)" d="m0 0 21 1 60 4 7 2 4 6 8 18 10 18 12 16 9 10 7 8 16 16 14 11 15 12 21 11 7 5-1 4-8 7-16 10-14 7-19 7-25 6-18 3h-29l-12-3-18-8-12-9-12-12-9-14-12-30-5-18-4-19-1-8v-43l1-13z" fill="#045463"/>
<path transform="translate(935,526)" d="m0 0h1l-1 9-11 33-6 24-4 25-2 22v28l3 23 3 13-1 4-42-3-15-2-4-3v-7l2-14v-28l-4-20-4-13-9-15-9-10-13-9-8-6 2-4 9-7 12-8 14-8 17-8 27-9 24-5z" fill="#045463"/>
<path transform="translate(744,714)" d="m0 0 7 1 23 11 20 7 6 3v9l-3 26v29l4 33 8 32 4 12v2l-4-2-10-9-11-12-13-19-12-21-10-22-6-21-3-16-1-26v-14z" fill="#065564"/>
<path transform="translate(991,758)" d="m0 0h7l35 9 27 9 20 9 14 8 10 9 6 8 1 3v9l-5 10-7 8-2 1h-11l-12-4-12-6-19-12-10-8-12-11-12-13-12-16-6-11z" fill="#045463"/>
<path transform="translate(786,619)" d="m0 0 8 1 9 6 6 8 5 15 2 12v19l-2 9-2 3h-11l-12-6-10-8-7-8-4-10-1-4v-11l5-13 4-6 6-5z" fill="#085765"/>
<path transform="translate(290,657)" d="m0 0h1v33l-4 17-4 15-5 7-1-2 5-11 5-19 2-13z" fill="#FEFEFE"/>
<path transform="translate(178,812)" d="m0 0 2 1-12 9-5 4-12 17h-2l2-5 9-12 7-7z" fill="#FEFEFE"/>
<path transform="translate(1243,459)" d="m0 0 4 2 14 14 12 16-1 2-9-11-9-10-11-12z" fill="#FEFEFE"/>
<path transform="translate(806,857)" d="m0 0 2 4 5 16v2l-4-2-4-4v-11z" fill="#F6F9F9"/>
<path transform="translate(825,564)" d="m0 0 2 1-6 5-2 3h-2l-1 7-4-2v-4l7-6z" fill="#FEFEFE"/>
<path transform="translate(1822,802)" d="m0 0 9 3 14 8-2 1-20-10z" fill="#FEFEFE"/>
<path transform="translate(991,758)" d="m0 0h7l4 2-7 3-2 1z" fill="#FEFEFE"/>
</svg>
